<?xml version="1.0" encoding="utf-8"?>
<!-- Generator: Adobe Illustrator 25.4.1, SVG Export Plug-In . SVG Version: 6.00 Build 0)  -->
<svg version="1.1" id="Capa_1" xmlns="http://www.w3.org/2000/svg" xmlns:xlink="http://www.w3.org/1999/xlink" x="0px" y="0px"
	 viewBox="0 0 300 300" style="enable-background:new 0 0 300 300;" xml:space="preserve">
<style type="text/css">
	.st0{display:none;fill:#1C1C1C;}
	.st1{fill:url(#SVGID_1_);}
	.st2{fill:#FFFFFF;}
	.st3{opacity:0.12;}
	.st4{fill:none;stroke:#1D1D1B;stroke-width:2;stroke-linecap:round;stroke-linejoin:round;}
	.st5{fill:#D9D9D9;}
	.st6{fill:#50B58B;}
	.st7{fill:#E63E8E;enable-background:new    ;}
	.st8{fill:#623883;}
	.st9{fill:#4D75B8;}
	
		.st10{fill:#FFFFFF;stroke:url(#SVGID_00000161597654170300897170000010555844358929751487_);stroke-width:70.57;stroke-miterlimit:10;}
	.st11{fill:url(#SVGID_00000142860548998854434620000009799986511633487768_);}
	.st12{fill:url(#SVGID_00000014607544914766610060000016070554405786041753_);}
	.st13{fill:none;stroke:#1D1D1B;stroke-width:3;stroke-linecap:round;stroke-linejoin:round;}
	.st14{fill:url(#SVGID_00000016046777239490608080000013348033182027650741_);}
	.st15{fill:url(#SVGID_00000088822851391709112270000005351927284205114272_);}
	.st16{fill:url(#SVGID_00000108997532266159623630000000187008617692376488_);}
	.st17{opacity:0.25;}
	.st18{fill:url(#SVGID_00000066510391899989187250000010961534624618733954_);}
	.st19{fill:url(#SVGID_00000123418638430804694680000010231821260689518741_);}
	.st20{fill:url(#SVGID_00000057852395434770509880000015769209111949193612_);}
</style>
<rect x="-1859.67" y="-1592.11" class="st0" width="2776.89" height="3215.11"/>
<g>
	<g>
		<path class="st2" d="M250.08,104.5c-5.48,4.3-10.45,8.19-15.42,12.09c-17.81,13.99-35.61,28-53.43,41.98
			c-8.72,6.84-16.48,6.78-25.19-0.08c-16.07-12.65-32.15-25.3-48.26-37.91c-1.41-1.1-3.01-1.95-4.98-3.21
			c-1.74,1.01-5.03,2.65-8.02,4.71c-4.97,3.42-4.98,8.61-4.16,13.82c0.29,1.87,1.13,3.74,2.09,5.4
			c7.43,12.95,14.98,25.82,22.42,38.76c2.03,3.53,4.91,6,8.55,7.66c3.7,1.69,7.32,1.77,10.9-0.52c2.52-1.62,5.18-3.02,7.79-4.52
			c8.17-4.7,16.7-4.12,24.05,1.76c1.95,1.56,3.89,3.26,5.43,5.22c7.75,9.85,14.92,20.08,18.51,32.3c0.78,2.67,1.03,5.6,0.95,8.39
			c-0.12,4.34-2.31,7.63-6.12,9.88c-26.64,15.7-52.44,13.37-77.4-3.79c-10.63-7.31-19.42-16.64-26.08-27.63
			c-10.59-17.47-21.01-35.08-30.74-53.05c-8.49-15.67-12.71-32.68-11.17-50.65c1.92-22.28,12.23-39.67,31.3-51.63
			c0.96-0.6,2-1.09,2.94-1.72c6.56-4.41,12.63-2.4,17.43,1.62c5.24,4.39,9.11,9.9,12.34,15.86c2.55,4.7,4.98,9.48,7.26,14.31
			c0.7,1.49,1.68,1.47,2.92,1.47c14.29-0.01,28.58-0.01,42.87-0.01c28.99,0,57.97,0.02,86.96-0.02c4.18-0.01,8.08,0.7,11.45,3.32
			c3.32,2.59,5.24,5.94,5.25,10.23c0.01,32.24,0.04,64.48-0.02,96.72c-0.01,7.53-6.4,13.53-14.63,13.6
			c-16.16,0.14-32.32,0.07-48.47,0.04c-3.31-0.01-5.58-2.18-5.63-5.14c-0.05-3.01,2.08-5.09,5.47-5.3c0.81-0.05,1.62-0.02,2.44-0.02
			c14.86,0,29.72,0.01,44.58-0.01c4.9-0.01,5.85-1,5.85-5.84c0-28.26,0-56.52,0-84.78C250.08,106.92,250.08,106.05,250.08,104.5z
			 M148.92,240.25c9.43-0.13,18.03-1.92,25.96-6.19c7.21-3.89,7.5-4.72,4.36-12.45c-3.75-9.24-9.1-17.55-15.45-25.21
			c-1.28-1.55-2.85-2.9-4.43-4.15c-3.62-2.88-7.4-3.3-11.46-0.7c-2.93,1.88-5.94,3.7-9.09,5.17c-2.46,1.15-5.15,2.29-7.79,2.44
			c-10.89,0.62-19.17-4.16-24.69-13.42c-7.8-13.1-15.46-26.29-22.91-39.59c-1.74-3.11-3.01-6.73-3.49-10.25
			c-1.25-9.1,1.78-19.27,11.64-24.17c2.9-1.44,5.6-3.27,8.43-4.85c3.41-1.89,4.61-4.87,4.31-8.57c-0.12-1.45-0.3-2.93-0.74-4.31
			c-3.53-11.09-8.95-21.18-16.36-30.16c-1.12-1.35-2.59-2.47-4.07-3.43c-0.67-0.43-1.93-0.56-2.63-0.21
			c-2.46,1.23-4.94,2.51-7.14,4.14C58.32,75.49,50.5,90.51,50.03,109.25c-0.38,15.03,3.38,29.23,10.53,42.27
			c9.47,17.28,19.56,34.21,29.64,51.15c4.25,7.14,9.79,13.35,15.95,18.95C118.41,232.76,132.37,240.01,148.92,240.25z M244.47,95.56
			c-43.61,0-86.57,0-129.82,0c0.64,5.36-0.36,10.26-3.33,14.61c1.24,0.93,2.36,1.73,3.44,2.58c15.7,12.32,31.38,24.65,47.08,36.97
			c5.7,4.47,8.05,4.45,13.72-0.01c15.81-12.43,31.64-24.85,47.46-37.28C230.02,106.93,237.02,101.42,244.47,95.56z"/>
	</g>
</g>
</svg>
