<?xml version="1.0" encoding="utf-8"?>
<!-- Generator: Adobe Illustrator 25.4.1, SVG Export Plug-In . SVG Version: 6.00 Build 0)  -->
<svg version="1.1" id="Capa_1" xmlns="http://www.w3.org/2000/svg" xmlns:xlink="http://www.w3.org/1999/xlink" x="0px" y="0px"
	 viewBox="0 0 300 300" style="enable-background:new 0 0 300 300;" xml:space="preserve">
<style type="text/css">
	.st0{display:none;fill:#1C1C1C;}
	.st1{fill:url(#SVGID_1_);}
	.st2{fill:#FFFFFF;}
	.st3{opacity:0.12;}
	.st4{fill:none;stroke:#1D1D1B;stroke-width:2;stroke-linecap:round;stroke-linejoin:round;}
	.st5{fill:#D9D9D9;}
	.st6{fill:#50B58B;}
	.st7{fill:#E63E8E;enable-background:new    ;}
	.st8{fill:#623883;}
	.st9{fill:#4D75B8;}
	
		.st10{fill:#FFFFFF;stroke:url(#SVGID_00000059277950548960068510000017043905311817475467_);stroke-width:70.57;stroke-miterlimit:10;}
	.st11{fill:url(#SVGID_00000033328413998717392660000007091995758207215248_);}
	.st12{fill:url(#SVGID_00000018218019082083120220000004727309058294083489_);}
	.st13{fill:none;stroke:#1D1D1B;stroke-width:3;stroke-linecap:round;stroke-linejoin:round;}
	.st14{fill:url(#SVGID_00000002385068354481664230000011855132634526704314_);}
	.st15{fill:url(#SVGID_00000090277393032476035240000012158807960100897667_);}
	.st16{fill:url(#SVGID_00000097468705968800896670000009630595515771816618_);}
	.st17{opacity:0.25;}
	.st18{fill:url(#SVGID_00000044152829481878086280000014968720636069226128_);}
	.st19{fill:url(#SVGID_00000150085615697733396330000018125964260689794492_);}
	.st20{fill:url(#SVGID_00000088812188105855676690000016625823104179558807_);}
</style>
<rect x="-627.67" y="-1592.11" class="st0" width="2776.89" height="3215.11"/>
<g>
	<g>
		<path class="st2" d="M154.2,37.96c0.32,4.52,0.6,5.27,5.43,5.63c-4.68,0.36-4.99,2.75-5.6,5.67c-0.74-3.05-0.68-5.09-5.6-5.79
			C153.51,43.12,153.98,42.4,154.2,37.96z"/>
		<g>
			<path class="st2" d="M34.53,81.79c1.07,15.39,2.04,17.93,18.48,19.14c-15.93,1.23-16.97,9.34-19.03,19.26
				c-2.53-10.38-2.3-17.32-19.03-19.7C32.19,99.31,33.77,96.87,34.53,81.79z"/>
			<path class="st2" d="M72.76,43.61c0.9,12.82,1.7,14.95,15.4,15.96C74.88,60.6,74.01,67.35,72.3,75.63
				c-2.11-8.66-1.92-14.43-15.86-16.42C70.8,58.22,72.12,56.18,72.76,43.61z"/>
			<path class="st2" d="M120.24,62.33c0.74,10.65,1.41,12.42,12.79,13.26c-11.03,0.85-11.75,6.47-13.17,13.34
				c-1.75-7.19-1.59-11.99-13.17-13.64C118.62,74.46,119.72,72.77,120.24,62.33z"/>
			<g>
				<g>
					<path class="st2" d="M170.1,207.63c2.94-37.14-8.59-47.54-13.52-51.98c-0.23-0.21-0.46-0.42-0.68-0.62H58.4l1.06-0.08
						l29.22-38.81h105.16l8.97,12.23c3.42-0.55,7-1.03,10.74-1.4l-14.92-20.46H84.15l-25.16,32.32h-22.9
						c-3.96,0.5-6.96,2.85-7.38,5.59c-0.43,2.84,2.01,5.22,3.12,6.31c2.14,2.1,4.5,2.81,7.52,3.68c1.67,0.48,3.6,0.82,6.64,1.11
						l-9.9,12.85v56.64v13.45v8.96c0,2.59,2.1,4.69,4.69,4.69h33.21c2.59,0,4.69-2.1,4.69-4.69v-8.96h92.93
						C169.86,230.62,169.07,220.55,170.1,207.63z M80.71,189.16l-29.34,0c0,0-8.8,1.05-6.52-13.04c2.24-13.85,34.02-1.83,34.02-1.83
						C84.17,175.51,95.79,189.19,80.71,189.16z"/>
				</g>
				<path class="st2" d="M256.93,260.78c1.87,0.97,3.96,1.4,6.06,1.21c7.36-0.64,22.7-4.48,22.03-25.34
					c-0.88-27.4-22.78-58.68-29.81-66.99c-5.43-6.41-14.69-0.3-9.86,7.15c4.82,7.45,9.86,14.8,9.86,14.8c1.4,1.7-0.08,7.15-4.16,2.3
					c-5.31-6.31-19.89-28.53-19.89-28.53c-3.89-6.74-15.32-2.54-9.92,5.73l19.07,30.03c2,2.3-1.21,5.18-3.29,2.63
					c-2.58-3.16-25.67-38.72-25.67-38.72c-6-5.93-14.91,1.73-10.33,7.94l26.14,38.67c1.84,3.12-1.53,5.18-3.51,2.63l-22.14-30.69
					c-5.58-5.58-14.6-0.05-9.43,8.11l25.93,36.34c5.47,5.47-3.45,12-7.08,8.37l-7.01-8.33c-5.51-5.51-14.22,2.22-9.21,7.89
					l10.52,11.62c0,0,10.08,10.96,26.74,8.99C244.13,255.16,253.01,258.74,256.93,260.78z"/>
			</g>
			<path class="st2" d="M203.14,251.67l-11.02,4.9c-3.22-1.83-16.08-11.53-13.17-48.24c3.13-39.5-9.23-52.68-15.52-58.45
				c7.7-3.92,31.77-14.56,66.38-14.91c10.17-0.12,18.2,3.1,24.03,9.52c8.26,9.09,10.61,22.94,11.14,32.79l4.61,5.24
				c0.05-10.14-1.5-28.92-12.45-40.99c-6.72-7.41-15.9-11.11-27.37-10.99c-43.51,0.44-70.16,16.31-71.27,16.98l-2.42,1.47l2,2
				c0.41,0.41,0.91,0.86,1.48,1.38c5.41,4.88,18.09,16.3,14.98,55.63c-3.6,45.46,15.99,52.84,16.83,53.13l0.83,0.29l14.04-6.24
				C205.18,253.98,204.15,252.81,203.14,251.67z"/>
		</g>
	</g>
</g>
</svg>
