<?xml version="1.0" encoding="utf-8"?>
<!-- Generator: Adobe Illustrator 25.4.1, SVG Export Plug-In . SVG Version: 6.00 Build 0)  -->
<svg version="1.1" id="Capa_1" xmlns="http://www.w3.org/2000/svg" xmlns:xlink="http://www.w3.org/1999/xlink" x="0px" y="0px"
	 viewBox="0 0 300 300" style="enable-background:new 0 0 300 300;" xml:space="preserve">
<style type="text/css">
	.st0{display:none;fill:#1C1C1C;}
	.st1{fill:url(#SVGID_1_);}
	.st2{fill:#FFFFFF;}
	.st3{opacity:0.12;}
	.st4{fill:none;stroke:#1D1D1B;stroke-width:2;stroke-linecap:round;stroke-linejoin:round;}
	.st5{fill:#D9D9D9;}
	.st6{fill:#50B58B;}
	.st7{fill:#E63E8E;enable-background:new    ;}
	.st8{fill:#623883;}
	.st9{fill:#4D75B8;}
	
		.st10{fill:#FFFFFF;stroke:url(#SVGID_00000098900856528177162840000007848986994733421456_);stroke-width:70.57;stroke-miterlimit:10;}
	.st11{fill:url(#SVGID_00000058585160070312337850000015287414473394434722_);}
	.st12{fill:url(#SVGID_00000094606060826939215040000005801219245295964095_);}
	.st13{fill:none;stroke:#1D1D1B;stroke-width:3;stroke-linecap:round;stroke-linejoin:round;}
	.st14{fill:url(#SVGID_00000081606132548171029120000002613022401104793481_);}
	.st15{fill:url(#SVGID_00000035491761151445185490000009161466397563916422_);}
	.st16{fill:url(#SVGID_00000021098981475574393170000010291922216200176822_);}
	.st17{opacity:0.25;}
	.st18{fill:url(#SVGID_00000132796686796771888970000004404748365658398651_);}
	.st19{fill:url(#SVGID_00000045576625019685560470000003150641434834621083_);}
	.st20{fill:url(#SVGID_00000014622100398505966820000015491577843947939481_);}
</style>
<rect x="-1042.78" y="-1592.11" class="st0" width="2776.89" height="3215.11"/>
<g>
	<path class="st2" d="M243.28,188.45c-1.1,4.73-3.94,8.56-6.49,12.54c-5.97,9.28-11.93,18.56-17.9,27.84
		c-8.35,13-20.26,19.42-35.71,19.41c-29.89-0.03-59.77-0.01-89.66-0.01c-0.76,0-1.52,0-2.56,0c0,1.75,0.01,3.44,0,5.12
		c-0.03,3.95-2.33,6.29-6.26,6.3c-10.03,0.02-20.05,0.01-30.08,0c-3.96-0.01-6.31-2.32-6.31-6.24c-0.01-25-0.01-49.99,0-74.99
		c0-4.05,2.32-6.33,6.41-6.33c9.84-0.01,19.67-0.01,29.51,0c4.32,0,6.38,1.88,6.84,6.39c1.35-0.56,2.62-1.17,3.95-1.64
		c13.44-4.72,25.92-2.89,37.47,5.48c0.93,0.68,2.26,1.13,3.41,1.14c11.42,0.08,22.85,0.3,34.26-0.02
		c10.8-0.3,20.11,7.26,20.66,19.29c0.6-0.72,1.02-1.19,1.41-1.7c6.4-8.36,12.82-16.7,19.19-25.09c4.61-6.08,10.63-8.85,18.14-7.15
		c7.35,1.66,11.92,6.38,13.45,13.87c0.03,0.17,0.19,0.32,0.29,0.47C243.28,184.89,243.28,186.67,243.28,188.45z M90.95,236.8
		c0.86,0,1.49,0,2.11,0c30.21,0,60.42,0,90.62,0c10.96,0,19.42-4.58,25.35-13.8c6.01-9.33,12.01-18.66,18.01-28
		c1.3-2.03,2.68-4.01,3.89-6.09c2.24-3.86,0.24-8.26-4.11-9.07c-2.59-0.48-4.51,0.62-6.07,2.67c-7.27,9.53-14.48,19.12-21.91,28.52
		c-5.19,6.57-12.24,10.26-20.56,10.42c-15.8,0.31-31.6,0.12-47.4,0.09c-2.44,0-4.24-1.27-5.2-3.52c-1.66-3.87,1.21-7.87,5.67-7.87
		c13.14-0.02,26.27,0.01,39.41-0.03c1.24,0,2.56-0.15,3.72-0.57c3.33-1.21,5.32-4.82,4.73-8.23c-0.65-3.74-3.73-6.38-7.64-6.39
		c-12.95-0.03-25.89-0.04-38.84,0.01c-2.16,0.01-3.91-0.64-5.53-2.06c-10.23-9-23.96-9.6-35.02-1.65c-0.93,0.67-1.26,1.36-1.26,2.5
		c0.04,13.77,0.03,27.54,0.03,41.31C90.95,235.54,90.95,236.04,90.95,236.8z M59.86,183.58c0,21.62,0,43.08,0,64.49
		c6.63,0,13.12,0,19.56,0c0-21.57,0-42.99,0-64.49C72.88,183.58,66.43,183.58,59.86,183.58z"/>
	<path class="st2" d="M139.7,46.01c6.97-0.39,13.95-0.71,20.92-1.17c21.88-1.44,43.76-2.94,65.64-4.41
		c6.08-0.41,7.91,0.73,10.33,6.37c4.81,11.18,9.64,22.35,14.4,33.54c2.24,5.26-1.12,10.71-6.54,10.64
		c-3.35-0.05-5.66-1.79-6.98-4.87c-3.31-7.73-6.64-15.46-9.96-23.19c-0.35-0.82-0.7-1.64-1.2-2.79c-5.2,4.79-10.2,9.39-15.29,14.08
		c0.39,0.91,0.74,1.73,1.1,2.55c5,11.63,10.01,23.25,14.99,34.89c2,4.67,0.43,8.61-4.23,10.61c-29.56,12.72-59.13,25.43-88.7,38.13
		c-4.67,2-8.61,0.44-10.62-4.22c-5.02-11.62-10-23.26-15-34.89c-0.35-0.82-0.7-1.64-1.1-2.57c-8.95,0.59-17.8,1.17-26.66,1.76
		c-1.06,0.07-2.11,0.16-3.17,0.23c-4.29,0.29-7.12-1.15-8.5-4.32c-1.39-3.19-0.5-6.25,2.65-9.16c10.07-9.29,20.13-18.57,30.2-27.86
		c10.85-10.01,21.69-20.01,32.53-30.03c0.58-0.54,1.06-1.18,1.58-1.77C137.3,47.04,138.5,46.52,139.7,46.01z M208.47,56.53
		c-1.07-0.02-1.54-0.06-2-0.03c-20.33,1.36-40.67,2.7-61,4.13c-1.02,0.07-2.17,0.66-2.94,1.36c-14.71,13.51-29.38,27.07-44.05,40.62
		c-0.56,0.51-1.05,1.09-1.87,1.94c0.85,0,1.23,0.02,1.61,0c20.5-1.37,40.99-2.72,61.49-4.16c0.93-0.07,1.97-0.69,2.69-1.35
		c6.15-5.59,12.25-11.25,18.36-16.89C189.85,73.75,198.94,65.34,208.47,56.53z M199.54,84.91c-0.7,0.61-1.31,1.13-1.9,1.67
		c-8.99,8.28-18.02,16.51-26.92,24.88c-2.46,2.32-5.11,3.49-8.5,3.61c-5.94,0.21-11.87,0.73-17.8,1.13
		c-7.05,0.48-14.11,0.97-21.22,1.46c3.84,8.93,7.59,17.66,11.34,26.39c25.52-10.97,50.89-21.88,76.32-32.81
		C207.07,102.42,203.34,93.74,199.54,84.91z"/>
</g>
</svg>
