<?xml version="1.0" encoding="utf-8"?>
<!-- Generator: Adobe Illustrator 25.4.1, SVG Export Plug-In . SVG Version: 6.00 Build 0)  -->
<svg version="1.1" id="Capa_1" xmlns="http://www.w3.org/2000/svg" xmlns:xlink="http://www.w3.org/1999/xlink" x="0px" y="0px"
	 viewBox="0 0 300 300" style="enable-background:new 0 0 300 300;" xml:space="preserve">
<style type="text/css">
	.st0{display:none;fill:#1C1C1C;}
	.st1{fill:url(#SVGID_1_);}
	.st2{fill:#FFFFFF;}
	.st3{opacity:0.12;}
	.st4{fill:none;stroke:#1D1D1B;stroke-width:2;stroke-linecap:round;stroke-linejoin:round;}
	.st5{fill:#D9D9D9;}
	.st6{fill:#50B58B;}
	.st7{fill:#E63E8E;enable-background:new    ;}
	.st8{fill:#623883;}
	.st9{fill:#4D75B8;}
	
		.st10{fill:#FFFFFF;stroke:url(#SVGID_00000176747866770434953330000017614265438392267926_);stroke-width:70.57;stroke-miterlimit:10;}
	.st11{fill:url(#SVGID_00000013890080883559940990000005999782271783556497_);}
	.st12{fill:url(#SVGID_00000052789097408311539600000001338027444728839823_);}
	.st13{fill:none;stroke:#1D1D1B;stroke-width:3;stroke-linecap:round;stroke-linejoin:round;}
	.st14{fill:url(#SVGID_00000078738663013626527920000004609148151393645226_);}
	.st15{fill:url(#SVGID_00000119798037446829017380000018292404545753395845_);}
	.st16{fill:url(#SVGID_00000133506993362641833330000004048797280387921024_);}
	.st17{opacity:0.25;}
	.st18{fill:url(#SVGID_00000092422253826958287930000003592411206531554198_);}
	.st19{fill:url(#SVGID_00000039112002169716505800000002181067110736585351_);}
	.st20{fill:url(#SVGID_00000171686369008262857160000002758602627652399515_);}
</style>
<rect x="-1464.11" y="-1592.11" class="st0" width="2776.89" height="3215.11"/>
<g>
	<g>
		<path class="st2" d="M203.34,224.76c-12.6,0-25.15,0-37.9,0c-0.13,7.49-2.72,13.84-8.64,18.56c-4.21,3.36-9.06,4.97-14.42,4.87
			c-12.24-0.23-19.86-8.3-22.21-23.52c-6.84-0.63-12.79-3.28-17.47-8.45c-11.64-12.87-7.54-33.21,8.23-40.46
			c1.89-0.87,2.24-1.64,1.75-3.64c-8.46-34.72-16.84-69.46-25.17-104.21c-0.43-1.78-1.08-2.44-2.94-2.38
			c-4.44,0.13-8.88,0.06-13.33,0.04c-4.6-0.03-7.64-2.8-7.63-6.9c0.01-4.09,3.05-6.83,7.67-6.86c4.85-0.03,9.71-0.04,14.56,0
			c7.12,0.06,12.69,4.24,14.46,11.14c2.42,9.47,4.69,18.98,6.87,28.51c0.48,2.07,1.31,2.69,3.44,2.69
			c50.76-0.06,101.52-0.05,152.28-0.05c0.74,0,1.48-0.01,2.22,0c6.04,0.07,8.93,4.04,7.13,9.88c-4.1,13.35-8.23,26.69-12.34,40.03
			c-2.47,8.01-4.89,16.03-7.42,24.01c-3.87,12.24-13.16,19.03-25.99,19.03c-34.64,0.01-69.27,0-103.91,0.01
			c-6.87,0-11.7,3.92-12.75,10.28c-1.03,6.2,3.68,12.61,9.94,13.38c3.35,0.41,6.21,0.15,9.21-2.44c8.43-7.3,21-6.53,29.31,1.03
			c0.96,0.87,2.54,1.51,3.83,1.52c14.81,0.1,29.62,0.05,44.43,0.09c1.66,0.01,2.88-0.39,4.14-1.58c7.29-6.83,17.98-8.01,26.49-3.08
			c8.52,4.94,12.84,14.73,10.71,24.25c-2.2,9.81-10.26,16.81-20.32,17.64c-11.6,0.95-22.33-7.78-23.79-19.36
			C203.63,227.49,203.5,226.19,203.34,224.76z M218.22,126.27c1.1,0,1.98,0,2.87,0c7.64,0,15.28,0.01,22.92-0.01
			c2.29,0,5.24,0.77,6.7-0.36c1.56-1.21,1.76-4.22,2.46-6.46c1.19-3.79,2.31-7.6,3.49-11.48c-13,0-25.68,0-38.43,0
			C218.22,114.06,218.22,119.97,218.22,126.27z M148.28,107.99c-12.4,0-24.57,0-37.02,0c1.5,6.23,2.93,12.19,4.36,18.09
			c10.96,0,21.76,0,32.66,0C148.28,120,148.28,114.11,148.28,107.99z M186.68,126.09c8.31,0,16.4,0,24.5,0c0-6.14,0-12.11,0-18.15
			c-8.24,0-16.34,0-24.5,0C186.68,114.04,186.68,119.96,186.68,126.09z M179.69,126.13c0-6.11,0-12.07,0-18.2
			c-8.19,0-16.27,0-24.41,0c0,6.18,0,12.2,0,18.2C163.52,126.13,171.54,126.13,179.69,126.13z M155.22,173.15
			c8.21,0,16.29,0,24.48,0c0-6.1,0-12.05,0-18.12c-8.21,0-16.28,0-24.48,0C155.22,161.12,155.22,167.07,155.22,173.15z M186.74,155
			c0,6.15,0,12.1,0,18.14c8.22,0,16.3,0,24.45,0c0-6.11,0-12.07,0-18.14C203.03,155,195,155,186.74,155z M148.23,133.17
			c-10.35,0-20.49,0-30.91,0c1.24,5.11,2.43,10,3.6,14.8c9.28,0,18.22,0,27.31,0C148.23,143.06,148.23,138.25,148.23,133.17z
			 M148.29,155.06c-8.65,0-17.05,0-25.67,0c1.49,6.17,2.93,12.12,4.36,18.05c7.2,0,14.2,0,21.31,0
			C148.29,167.03,148.29,161.14,148.29,155.06z M218.29,133.17c0,5.07,0,9.88,0,14.8c8.74,0,17.34,0,26.06,0
			c1.5-4.88,2.99-9.73,4.56-14.8C238.58,133.17,228.52,133.17,218.29,133.17z M218.25,173.23c3.73,0,7.18,0.13,10.62-0.04
			c3.37-0.16,6.2-1.71,8.18-4.44c2.96-4.07,3.43-9.04,5.07-13.66c-8.22,0-16.06,0-23.87,0C218.25,161.2,218.25,167.1,218.25,173.23z
			 M179.61,147.93c0-5.05,0-9.92,0-14.75c-8.24,0-16.26,0-24.39,0c0,4.99,0,9.8,0,14.75C163.37,147.93,171.4,147.93,179.61,147.93z
			 M186.76,133.13c0,5,0,9.87,0,14.78c8.23,0,16.3,0,24.38,0c0-5.03,0-9.9,0-14.78C202.92,133.13,194.91,133.13,186.76,133.13z
			 M142.88,216.62c-5.07-0.01-9.09,3.97-9.13,9.03c-0.03,5.03,3.97,9.16,8.97,9.24c5.06,0.08,9.31-4.13,9.29-9.21
			C151.99,220.65,147.93,216.63,142.88,216.62z M226,216.62c-5.03,0-9.12,4.04-9.17,9.04c-0.04,5.04,4.24,9.29,9.29,9.22
			c5.03-0.07,9-4.15,8.97-9.22C235.06,220.58,231.09,216.62,226,216.62z"/>
		<path class="st2" d="M68.45,132.21c6.5,0,12.99-0.01,19.49,0.01c2.9,0.01,4.71,1.52,4.75,3.87c0.03,2.34-1.82,4-4.65,4.01
			c-13.16,0.02-26.31,0.02-39.47,0c-2.84-0.01-4.65-1.66-4.6-4.03c0.05-2.38,1.81-3.84,4.75-3.85
			C55.3,132.2,61.88,132.21,68.45,132.21z"/>
		<path class="st2" d="M47.21,111.51c5.09,0,10.18-0.02,15.27,0.01c2.98,0.01,4.66,1.42,4.71,3.86c0.05,2.57-1.63,4.02-4.78,4.03
			c-10.1,0.02-20.2,0.02-30.3,0c-3.06,0-4.91-1.54-4.89-3.98c0.02-2.42,1.88-3.9,4.96-3.91C37.19,111.5,42.2,111.51,47.21,111.51z"
			/>
		<path class="st2" d="M66.27,98.7c-4.77,0-9.54,0.02-14.31-0.01c-2.77-0.02-4.48-1.47-4.55-3.78c-0.08-2.37,1.72-4.08,4.55-4.1
			c9.46-0.04,18.92-0.04,28.37,0c2.83,0.01,4.63,1.72,4.55,4.09c-0.07,2.31-1.78,3.76-4.55,3.78C75.65,98.72,70.96,98.7,66.27,98.7z
			"/>
	</g>
</g>
</svg>
