<?xml version="1.0" encoding="utf-8"?>
<!-- Generator: Adobe Illustrator 25.4.1, SVG Export Plug-In . SVG Version: 6.00 Build 0)  -->
<svg version="1.1" xmlns="http://www.w3.org/2000/svg" xmlns:xlink="http://www.w3.org/1999/xlink" x="0px" y="0px"
	 viewBox="0 0 100 100" style="enable-background:new 0 0 100 100;" xml:space="preserve">
<style type="text/css">
	.st0{display:none;}
	.st1{display:inline;fill:#E6338A;}
	.st2{fill:#E6338A;}
	.st3{display:inline;fill:#DB2B85;}
	.st4{fill:#DB2B85;}
</style>
<g id="Capa_1" class="st0">
	<g>
		<path class="st1" d="M56.45,39.17c0-3.79-0.18-7.46,0.05-11.11c0.2-3.18,1.99-4.78,5.18-4.98c2.69-0.17,5.39-0.11,8.08-0.15
			c0.42-0.01,0.84,0,1.31,0c0-4.55,0-8.95,0-13.42c-4.34,0-8.62-0.19-12.88,0.04c-9.47,0.51-15.79,6.63-16.56,16.08
			c-0.33,4.04-0.16,8.12-0.22,12.18c-0.01,0.42,0,0.84,0,1.39c-4.2,0-8.28,0-12.37,0c-0.05,0.26-0.09,0.4-0.09,0.54
			c-0.01,4.35,0.01,8.7-0.02,13.05c-0.01,0.84,0.46,0.81,1.03,0.81c3.42-0.01,6.83,0,10.25,0c0.38,0,0.76,0,1.22,0
			c0,12.42,0,24.67,0,36.97c4.99,0,9.89,0,14.87,0c0-12.31,0-24.56,0-36.95c4.77,0,9.46,0,14.22,0c0-4.86,0-9.58,0-14.44
			C65.78,39.17,61.09,39.17,56.45,39.17z"/>
	</g>
	<circle class="st2" cx="50" cy="50" r="50"/>
	<path class="st2" d="M97.94,29.35c-1.14-7.71-4.57-11.11-11.47-12.36c-1.11-0.2-2.24-0.38-3.36-0.43
		c-11.75-0.55-23.5-0.38-35.25-0.91c-0.01,0-0.01,0-0.02,0c-5.65,0-11.31-0.16-16.95,0.04c-5.64,0.2-11.28,0.64-16.9,1.2
		c-6.23,0.62-10.45,4.3-11.5,10.44c-0.91,5.35-1.37,10.8-1.66,16.22c-0.5,9.3-0.14,18.6,1.37,27.82c1.06,6.5,4.62,10.28,11.1,11.25
		c4.97,0.74,10.01,1.07,15.04,1.29c18.55,0.8,37.09,0.75,55.62-0.75c8.78-0.71,12.98-5.02,13.99-12.63
		C99.77,56.8,99.97,43.05,97.94,29.35z M40.25,64.6c0-9.89,0-19.55,0-29.48c8.52,4.91,16.93,9.75,25.59,14.74
		C57.2,54.84,48.82,59.66,40.25,64.6z"/>
</g>
<g id="Capa_2">
	<g class="st0">
		<path class="st3" d="M98.78,41.46C96.02,26.65,88.14,15.32,75.35,7.44C68.76,3.39,61.54,1.17,53.82,0.6
			c-0.25-0.02-0.5-0.1-0.75-0.16c-2.07,0-4.13,0-6.2,0c-1.78,0.25-3.58,0.44-5.35,0.75C30.3,3.14,20.85,8.38,13.2,16.81
			C5.94,24.82,1.63,34.26,0.69,45.04c-1.47,16.91,4.16,31.17,16.9,42.41c9.57,8.44,20.94,12.32,33.68,12.11
			c22.47-0.37,42.5-16.92,47.1-38.92c0.47-2.23,0.68-4.52,1.01-6.78c0.04-0.25,0.11-0.5,0.16-0.75c0-2.07,0-4.13,0-6.2
			C99.29,45.09,99.12,43.26,98.78,41.46z M80.08,62.98c-0.63,4.78-3.27,7.48-8.78,7.93c-11.63,0.94-23.27,0.97-34.91,0.47
			c-3.15-0.14-6.32-0.35-9.44-0.81c-4.07-0.61-6.3-2.98-6.97-7.06c-0.95-5.78-1.18-11.62-0.86-17.46c0.18-3.41,0.47-6.83,1.04-10.18
			c0.65-3.86,3.31-6.16,7.22-6.56c3.53-0.35,7.07-0.63,10.61-0.75c3.54-0.13,7.09-0.03,10.64-0.03c0-0.15,0.01-0.29,0.01-0.44
			c7.38,0.34,14.75,0.67,22.13,1.02c0.71,0.03,1.41,0.14,2.11,0.27c4.33,0.78,6.48,2.92,7.2,7.76
			C81.35,45.73,81.23,54.36,80.08,62.98z"/>
		<path class="st3" d="M43.87,59.26c5.38-3.1,10.64-6.13,16.07-9.25c-5.44-3.13-10.72-6.17-16.07-9.25
			C43.87,46.98,43.87,53.05,43.87,59.26z"/>
	</g>
	<g>
		<path class="st4" d="M46.9,0.44c2.07,0,4.13,0,6.2,0c0.28,0.06,0.56,0.13,0.84,0.17c1.91,0.26,3.85,0.43,5.74,0.8
			C86,6.59,103.43,32,98.83,58.43c-4,22.95-23.32,40.07-46.55,41.08c-12.3,0.54-23.39-3-33.03-10.68C9.42,81,3.38,70.85,1.17,58.45
			c-0.31-1.77-0.5-3.57-0.74-5.35c0-2.07,0-4.13,0-6.2c0.08-0.63,0.16-1.27,0.23-1.9C1.83,34.32,5.91,24.92,13.1,16.94
			c7.66-8.5,17.15-13.79,28.45-15.75C43.33,0.88,45.12,0.68,46.9,0.44z M55.75,40.24c0-3.4-0.16-6.7,0.05-9.96
			c0.18-2.86,1.79-4.29,4.65-4.47c2.41-0.15,4.83-0.1,7.25-0.14c0.38-0.01,0.75,0,1.17,0c0-4.08,0-8.03,0-12.04
			c-3.89,0-7.73-0.17-11.55,0.04c-8.5,0.46-14.16,5.95-14.86,14.43c-0.3,3.62-0.15,7.28-0.2,10.93c-0.01,0.38,0,0.75,0,1.25
			c-3.77,0-7.43,0-11.1,0c-0.04,0.24-0.08,0.36-0.08,0.48c0,3.9,0.01,7.81-0.02,11.71c-0.01,0.76,0.42,0.72,0.93,0.72
			c3.06-0.01,6.13,0,9.19,0c0.34,0,0.68,0,1.09,0c0,11.14,0,22.13,0,33.17c4.47,0,8.87,0,13.34,0c0-11.05,0-22.04,0-33.15
			c4.28,0,8.49,0,12.76,0c0-4.36,0-8.6,0-12.96C64.12,40.24,59.91,40.24,55.75,40.24z"/>
	</g>
	<g class="st0">
		<path class="st3" d="M82.58,12.67C74.76,5.66,65.46,1.79,55.02,0.66c-0.64-0.07-1.27-0.16-1.91-0.23c-2.07,0-4.13,0-6.2,0
			c-1.78,0.25-3.57,0.44-5.35,0.75C30.1,3.17,20.5,8.59,12.8,17.29C5.79,25.21,1.82,34.49,0.67,45c-0.07,0.64-0.16,1.27-0.23,1.91
			c0,2.07,0,4.13,0,6.2c0.25,1.85,0.44,3.71,0.77,5.54C3.4,70.71,9.28,80.64,18.73,88.42c7.19,5.93,15.46,9.54,24.69,10.71
			c13.56,1.72,25.91-1.48,36.76-9.83c10.74-8.27,17.26-19.23,18.93-32.69C101.27,39.18,95.66,24.42,82.58,12.67z M78.28,62.04
			c-0.02,1.28-0.15,2.55-0.42,3.79c-0.27,1.24-0.67,2.45-1.22,3.62c-1.56,3.28-3.83,5.61-6.69,7.02c-0.57,0.28-1.17,0.53-1.79,0.74
			c-1.24,0.42-2.56,0.69-3.98,0.82c-4.12,0.38-8.28,0.42-12.4,0.54c-0.59,0.02-1.18,0.03-1.77,0.05c-4.72-0.18-9.41-0.18-14.07-0.56
			c-4.85-0.4-8.82-2.74-11.3-6.32c-0.99-1.43-1.74-3.07-2.22-4.85c-0.24-0.89-0.41-1.83-0.5-2.8c-0.13-1.35-0.22-2.7-0.28-4.05
			c-0.03-0.68-0.07-1.35-0.06-2.03c0.01-6.71,0.06-13.42,0.16-20.14c0.01-0.63,0.05-1.26,0.12-1.89c0.14-1.25,0.4-2.48,0.8-3.67
			c0.2-0.6,0.44-1.18,0.71-1.76c0.62-1.31,1.36-2.48,2.2-3.5c1.69-2.03,3.8-3.47,6.27-4.29c1.24-0.41,2.57-0.67,3.98-0.77
			c1.54-0.11,3.09-0.19,4.63-0.25c3.09-0.12,6.19-0.15,9.29-0.16c1.55,0,3.1,0,4.65,0c0.91,0,1.82,0,2.73,0.02
			c1.82,0.03,3.65,0.1,5.46,0.25c0.91,0.08,1.81,0.18,2.71,0.31c0.89,0.13,1.75,0.32,2.57,0.58c3.28,1.04,5.93,3.09,7.73,5.84
			c1.35,2.06,2.21,4.52,2.48,7.23c0.14,1.39,0.23,2.79,0.29,4.18c0.03,0.7,0.07,1.4,0.07,2.09C78.44,48.74,78.38,55.39,78.28,62.04z
			"/>
		<path class="st3" d="M62.9,27c-8.6-0.23-17.22-0.22-25.83,0c-5.95,0.16-9.73,4.09-10.09,10.04c-0.26,4.31-0.27,8.64-0.4,12.96
			c0.07,0,0.14,0,0.21,0c0,3.61-0.04,7.23,0.01,10.84c0.04,2.4,0.31,4.78,1.47,6.94c1.85,3.47,4.96,5.02,8.7,5.24
			c8.64,0.5,17.29,0.5,25.92,0.01c6.01-0.34,9.95-4.13,10.11-10.13c0.23-8.6,0.23-17.22,0-25.83C72.86,31.07,68.94,27.16,62.9,27z
			 M62.13,58.18c-0.79,1.17-1.74,2.22-2.83,3.11c-0.72,0.6-1.51,1.12-2.34,1.57c-1.66,0.9-3.52,1.48-5.49,1.68
			c-0.49,0.05-0.99,0.07-1.5,0.07c-8.07-0.03-14.56-6.54-14.57-14.6c-0.01-8.1,6.55-14.65,14.65-14.62
			c2.02,0.01,3.94,0.42,5.68,1.16c0.87,0.37,1.7,0.82,2.47,1.35c1.55,1.05,2.88,2.39,3.93,3.94c0.26,0.39,0.5,0.79,0.73,1.2
			c1.12,2.07,1.75,4.43,1.76,6.96C64.63,53.03,63.71,55.85,62.13,58.18z M68.54,35.54c-0.24,1.11-1.02,2.01-2.06,2.42
			c-0.42,0.16-0.87,0.25-1.36,0.24c-0.47-0.01-0.91-0.11-1.31-0.29c-0.2-0.09-0.39-0.2-0.57-0.32c-0.88-0.62-1.45-1.65-1.44-2.83
			c0.01-1.43,0.88-2.63,2.13-3.12c0.42-0.16,0.87-0.25,1.36-0.24c0.47,0.01,0.91,0.11,1.31,0.29c0.2,0.09,0.39,0.2,0.57,0.32
			c0.53,0.37,0.95,0.9,1.19,1.51c0.16,0.41,0.25,0.86,0.25,1.32C68.62,35.08,68.59,35.31,68.54,35.54z"/>
		<path class="st3" d="M50.13,40.51c-5.27-0.05-9.58,4.2-9.59,9.45c-0.02,5.22,4.22,9.5,9.43,9.52c5.22,0.03,9.51-4.19,9.55-9.4
			C59.54,44.86,55.34,40.56,50.13,40.51z"/>
	</g>
</g>
</svg>
