<?xml version="1.0" encoding="utf-8"?>
<!-- Generator: Adobe Illustrator 25.4.1, SVG Export Plug-In . SVG Version: 6.00 Build 0)  -->
<svg version="1.1" id="Capa_1" xmlns="http://www.w3.org/2000/svg" xmlns:xlink="http://www.w3.org/1999/xlink" x="0px" y="0px"
	 viewBox="0 0 246.67 37.11" style="enable-background:new 0 0 246.67 37.11;" xml:space="preserve">
<style type="text/css">
	.st0{fill:#FFD316;}
</style>
<g>
	<polygon class="st0" points="-474.04,-1616.25 -468.57,-1605.16 -456.33,-1603.39 -465.19,-1594.75 -463.1,-1582.57 
		-474.04,-1588.32 -484.99,-1582.57 -482.9,-1594.75 -491.75,-1603.39 -479.52,-1605.16 	"/>
	<polygon class="st0" points="-424.27,-1616.25 -418.79,-1605.16 -406.56,-1603.39 -415.41,-1594.75 -413.32,-1582.57 
		-424.27,-1588.32 -435.21,-1582.57 -433.12,-1594.75 -441.98,-1603.39 -429.74,-1605.16 	"/>
	<polygon class="st0" points="-370.93,-1616.25 -365.46,-1605.16 -353.22,-1603.39 -362.08,-1594.75 -359.99,-1582.57 
		-370.93,-1588.32 -381.88,-1582.57 -379.79,-1594.75 -388.64,-1603.39 -376.41,-1605.16 	"/>
	<polygon class="st0" points="-319.48,-1616.25 -314.01,-1605.16 -301.77,-1603.39 -310.62,-1594.75 -308.53,-1582.57 
		-319.48,-1588.32 -330.42,-1582.57 -328.33,-1594.75 -337.19,-1603.39 -324.95,-1605.16 	"/>
	<polygon class="st0" points="-265.26,-1616.25 -259.78,-1605.16 -247.55,-1603.39 -256.4,-1594.75 -254.31,-1582.57 
		-265.26,-1588.32 -276.2,-1582.57 -274.11,-1594.75 -282.97,-1603.39 -270.73,-1605.16 	"/>
</g>
<polygon class="st0" points="19.05,2.38 24.52,13.47 36.76,15.25 27.91,23.88 30,36.07 19.05,30.31 8.1,36.07 10.2,23.88 
	1.34,15.25 13.58,13.47 "/>
<polygon class="st0" points="71.25,2.38 76.72,13.47 88.96,15.25 80.1,23.88 82.19,36.07 71.25,30.31 60.3,36.07 62.39,23.88 
	53.54,15.25 65.77,13.47 "/>
<polygon class="st0" points="123.44,2.38 128.92,13.47 141.15,15.25 132.3,23.88 134.39,36.07 123.44,30.31 112.5,36.07 
	114.59,23.88 105.73,15.25 117.97,13.47 "/>
<polygon class="st0" points="175.64,2.38 181.11,13.47 193.35,15.25 184.5,23.88 186.59,36.07 175.64,30.31 164.7,36.07 
	166.79,23.88 157.93,15.25 170.17,13.47 "/>
<polygon class="st0" points="227.84,2.38 233.31,13.47 245.55,15.25 236.69,23.88 238.78,36.07 227.84,30.31 216.89,36.07 
	218.98,23.88 210.13,15.25 222.37,13.47 "/>
</svg>
