<?xml version="1.0" encoding="utf-8"?>
<!-- Generator: Adobe Illustrator 25.4.1, SVG Export Plug-In . SVG Version: 6.00 Build 0)  -->
<svg version="1.1" id="Capa_1" xmlns="http://www.w3.org/2000/svg" xmlns:xlink="http://www.w3.org/1999/xlink" x="0px" y="0px"
	 viewBox="0 0 35.42 33.69" style="enable-background:new 0 0 35.42 33.69;" xml:space="preserve">
<style type="text/css">
	.st0{fill:#FFD316;}
</style>
<g>
	<polygon class="st0" points="-475.38,-1618.63 -469.91,-1607.54 -457.67,-1605.76 -466.53,-1597.13 -464.44,-1584.94 
		-475.38,-1590.7 -486.33,-1584.94 -484.24,-1597.13 -493.09,-1605.76 -480.86,-1607.54 	"/>
	<polygon class="st0" points="-425.61,-1618.63 -420.13,-1607.54 -407.9,-1605.76 -416.75,-1597.13 -414.66,-1584.94 
		-425.61,-1590.7 -436.55,-1584.94 -434.46,-1597.13 -443.32,-1605.76 -431.08,-1607.54 	"/>
	<polygon class="st0" points="-372.27,-1618.63 -366.8,-1607.54 -354.56,-1605.76 -363.42,-1597.13 -361.33,-1584.94 
		-372.27,-1590.7 -383.22,-1584.94 -381.13,-1597.13 -389.98,-1605.76 -377.75,-1607.54 	"/>
	<polygon class="st0" points="-320.82,-1618.63 -315.35,-1607.54 -303.11,-1605.76 -311.96,-1597.13 -309.87,-1584.94 
		-320.82,-1590.7 -331.76,-1584.94 -329.67,-1597.13 -338.53,-1605.76 -326.29,-1607.54 	"/>
	<polygon class="st0" points="-266.6,-1618.63 -261.12,-1607.54 -248.89,-1605.76 -257.74,-1597.13 -255.65,-1584.94 
		-266.6,-1590.7 -277.54,-1584.94 -275.45,-1597.13 -284.31,-1605.76 -272.07,-1607.54 	"/>
</g>
<polygon class="st0" points="17.71,0 23.18,11.09 35.42,12.87 26.57,21.5 28.66,33.69 17.71,27.93 6.76,33.69 8.86,21.5 0,12.87 
	12.24,11.09 "/>
</svg>
