<?xml version="1.0" encoding="utf-8"?>
<!-- Generator: Adobe Illustrator 25.4.1, SVG Export Plug-In . SVG Version: 6.00 Build 0)  -->
<svg version="1.1" id="Capa_1" xmlns="http://www.w3.org/2000/svg" xmlns:xlink="http://www.w3.org/1999/xlink" x="0px" y="0px"
	 viewBox="0 0 50 50" style="enable-background:new 0 0 50 50;" xml:space="preserve">
<g>
	<path d="M0.67,23.1c0.31-0.45,0.57-0.95,0.95-1.33C8.06,15.31,14.52,8.87,20.98,2.43c2.36-2.36,5.86-2.35,8.23,0.02
		c6.45,6.49,12.9,12.99,19.36,19.47c0.56,0.56,0.9,1.18,0.7,2c-0.35,1.4-1.98,1.92-3.08,0.99c-0.2-0.17-0.38-0.36-0.66-0.62
		c0,0.26,0,0.43,0,0.59c0,2.44,0.01,4.88,0,7.32c0,0.82-0.39,1.43-1.14,1.76c-0.72,0.32-1.4,0.2-1.99-0.31
		c-0.48-0.4-0.66-0.94-0.66-1.56c0.01-3.72,0-7.44,0.01-11.16c0-0.34-0.09-0.58-0.34-0.83c-4.92-4.94-9.83-9.88-14.74-14.82
		c-1.07-1.08-2.07-1.08-3.16,0c-4.97,4.96-9.93,9.91-14.9,14.86c-0.25,0.24-0.34,0.48-0.34,0.83c0.01,6.83,0.01,13.65,0.01,20.48
		c0,2.5,1.59,4.09,4.1,4.09c1.68,0,3.36,0,5.04,0c0.17,0,0.34,0,0.56,0c0-0.21,0-0.38,0-0.55c0-3.42-0.01-6.84,0-10.26
		c0.01-4.03,3.24-7.19,7.26-7.15c3.79,0.04,6.96,3.18,6.99,6.98c0.03,3.45,0.01,6.9,0.01,10.36c0,0.19,0,0.38,0,0.59
		c0.17,0.01,0.3,0.03,0.44,0.03c1.71,0,3.42,0.01,5.13,0c2.23-0.01,3.84-1.56,3.93-3.78c0.05-1.12,0.86-1.94,1.93-1.92
		c1.07,0.02,1.86,0.87,1.87,1.99c0,3.62-2.8,6.87-6.39,7.42c-0.12,0.02-0.24,0.06-0.36,0.1c-2.95,0-5.89,0-8.84,0
		c-1.14-0.38-1.61-1.19-1.52-2.37c0.03-0.35,0-0.7,0-1.04c0-3.73,0.01-7.47,0-11.2c-0.01-1.93-1.54-3.4-3.44-3.34
		c-1.8,0.05-3.2,1.52-3.21,3.39c-0.01,4.07-0.02,8.13,0.01,12.2c0.01,1.18-0.4,1.98-1.53,2.37c-3.01,0-6.02,0-9.03,0
		c-0.06-0.03-0.11-0.06-0.17-0.07c-4.01-0.68-6.58-3.72-6.58-7.77c0-5.53,0-11.06,0-16.58c0-0.17,0-0.34,0-0.6
		c-0.26,0.25-0.45,0.44-0.65,0.6c-0.88,0.75-2.15,0.6-2.8-0.33c-0.15-0.22-0.24-0.48-0.36-0.72C0.67,23.61,0.67,23.36,0.67,23.1z"/>
	<path d="M25.15,22.91c-1.52,0-3.04,0-4.56,0c-1.2,0-2.05-0.79-2.05-1.89c0-1.1,0.85-1.9,2.04-1.91c3.04,0,6.08,0,9.11,0
		c1.2,0,2.05,0.79,2.05,1.89c0,1.1-0.85,1.9-2.04,1.91C28.19,22.92,26.67,22.91,25.15,22.91z"/>
</g>
</svg>
