<?xml version="1.0" encoding="utf-8"?>
<!-- Generator: Adobe Illustrator 25.4.1, SVG Export Plug-In . SVG Version: 6.00 Build 0)  -->
<svg version="1.1" id="Capa_1" xmlns="http://www.w3.org/2000/svg" xmlns:xlink="http://www.w3.org/1999/xlink" x="0px" y="0px"
	 viewBox="0 0 50.33 50.33" style="enable-background:new 0 0 50.33 50.33;" xml:space="preserve">
<style type="text/css">
	.st0{fill:#242424;}
	.st1{fill:#623883;}
	.st2{fill:#E63E8E;enable-background:new    ;}
</style>
<path class="st0" d="M27.62,47.51V30.44c0-1.56,1.27-2.83,2.83-2.83h17.07c1.56,0,2.83,1.27,2.83,2.83v17.07
	c0,1.56-1.27,2.83-2.83,2.83H30.44C28.88,50.33,27.62,49.07,27.62,47.51z"/>
<path class="st1" d="M0,47.51V30.44c0-1.56,1.27-2.83,2.83-2.83h17.07c1.56,0,2.83,1.27,2.83,2.83v17.07c0,1.56-1.27,2.83-2.83,2.83
	H2.83C1.27,50.33,0,49.07,0,47.51z"/>
<path class="st2" d="M27.62,19.89V2.83c0-1.56,1.27-2.83,2.83-2.83h17.07c1.56,0,2.83,1.27,2.83,2.83v17.07
	c0,1.56-1.27,2.83-2.83,2.83H30.44C28.88,22.72,27.62,21.45,27.62,19.89z"/>
<path class="st0" d="M0,19.89V2.83C0,1.27,1.27,0,2.83,0h17.07c1.56,0,2.83,1.27,2.83,2.83v17.07c0,1.56-1.27,2.83-2.83,2.83H2.83
	C1.27,22.72,0,21.45,0,19.89z"/>
</svg>
