<?xml version="1.0" encoding="UTF-8" standalone="no"?>
<svg
   xmlns:dc="http://purl.org/dc/elements/1.1/"
   xmlns:cc="http://creativecommons.org/ns#"
   xmlns:rdf="http://www.w3.org/1999/02/22-rdf-syntax-ns#"
   xmlns:svg="http://www.w3.org/2000/svg"
   xmlns="http://www.w3.org/2000/svg"
   xmlns:sodipodi="http://sodipodi.sourceforge.net/DTD/sodipodi-0.dtd"
   xmlns:inkscape="http://www.inkscape.org/namespaces/inkscape"
   version="1.1"
   id="Capa_1"
   x="0px"
   y="0px"
   viewBox="0 0 290 255"
   xml:space="preserve"
   sodipodi:docname="whatsapp_qr.svg"
   width="290"
   height="255"
   inkscape:version="1.0.1 (3bc2e813f5, 2020-09-07)"><metadata
   id="metadata65"><rdf:RDF><cc:Work
       rdf:about=""><dc:format>image/svg+xml</dc:format><dc:type
         rdf:resource="http://purl.org/dc/dcmitype/StillImage" /><dc:title /></cc:Work></rdf:RDF></metadata><defs
   id="defs63"><filter
     inkscape:collect="always"
     style="color-interpolation-filters:sRGB"
     id="filter920"
     x="-0.046380042"
     width="1.0927601"
     y="-0.054575187"
     height="1.1091504"><feGaussianBlur
       inkscape:collect="always"
       stdDeviation="4.7578193"
       id="feGaussianBlur922" /></filter></defs><sodipodi:namedview
   pagecolor="#ffffff"
   bordercolor="#666666"
   borderopacity="1"
   objecttolerance="10"
   gridtolerance="10"
   guidetolerance="10"
   inkscape:pageopacity="0"
   inkscape:pageshadow="2"
   inkscape:window-width="1920"
   inkscape:window-height="1017"
   id="namedview61"
   showgrid="false"
   inkscape:zoom="2.4041631"
   inkscape:cx="108.15645"
   inkscape:cy="123.93375"
   inkscape:window-x="-8"
   inkscape:window-y="-8"
   inkscape:window-maximized="1"
   inkscape:current-layer="Capa_1"
   inkscape:document-rotation="0" />
<style
   type="text/css"
   id="style2">
	.st0{fill:#E0408D;}
	.st1{fill:#FFFFFF;}
	.st2{fill:#E6338A;}
</style>

<g
   id="g1216"
   style="fill:#000000;fill-opacity:0.92333335;filter:url(#filter920);opacity:0.56077348"
   transform="translate(20.306659,0.81516847)"><g
     id="g1178"
     style="fill:#000000;fill-opacity:0.92333335">
	<g
   id="g1164"
   style="fill:#000000;fill-opacity:0.92333335">
		
		
	</g>
	<g
   id="g1176"
   style="fill:#000000;fill-opacity:0.92333335">
		<g
   id="g1170"
   style="fill:#000000;fill-opacity:0.92333335">
			
			
		</g>
		
		
	</g>
</g><g
     id="g1214"
     style="fill:#000000;fill-opacity:0.92333335">
	
	
	
	
	
	
	
	
	
	
	
	
	
	
	
	
	<path
   id="path1212"
   style="fill:#000000;fill-opacity:0.92333335"
   d="m 102.28,124.93 c 0.98,2.14 2.44,3.63 4.3,4.77 0.32,0.2 0.69,0.31 1,0.52 1.08,0.74 1.79,0.46 2.48,-0.63 0.93,-1.47 1.09,-1.43 2.61,-0.63 0.93,0.49 1.9,0.9 2.82,1.34 1.03,2.25 -0.88,4.77 -3.66,4.91 -2.4,0.12 -4.55,-0.79 -6.46,-2.02 -3.34,-2.14 -5.95,-5.01 -7.55,-8.71 -0.75,-1.73 -0.27,-4.45 1.03,-5.8 1.19,-1.24 3.17,-0.84 3.77,0.76 0.17,0.46 0.26,0.96 0.51,1.37 1.02,1.58 0.66,2.91 -0.85,4.12 z M 51.19,70.77 c -5.89,0 -11.66,0 -17.48,0 0,-5.61 0,-11.26 0,-17.03 5.86,0 11.61,0 17.48,0 0,5.66 0,11.24 0,17.03 z M 180.23,53.49 c 0,5.86 0,11.6 0,17.47 -6.01,0 -11.94,0 -18,0 0,-5.81 0,-11.57 0,-17.47 5.97,0 11.91,0 18,0 z m -128.8,128.3 c 0,6.15 0,12.18 0,18.35 -5.97,0 -11.88,0 -17.92,0 0,-6.11 0,-12.17 0,-18.35 5.97,0 11.86,0 17.92,0 z m 40.66,-17.21 c 0,-1.89 0,-3.62 0,-5.49 2.01,0 3.92,0 5.97,0 0,1.83 0,3.6 0,5.49 -1.98,0 -3.89,0 -5.97,0 z m 64.72,5.79 c 0,2.23 0,4.27 0,6.42 -2.17,0 -4.24,0 -6.42,0 0,-2.17 0,-4.24 0,-6.42 2.17,0 4.24,0 6.42,0 z m -41.12,5.91 c 0,1.99 0,3.88 0,5.87 -2,0 -3.89,0 -5.92,0 0,-1.96 0,-3.84 0,-5.87 1.95,0 3.9,0 5.92,0 z M 109.82,47.69 c -1.97,0 -3.77,0 -5.77,0 0,1.97 0,3.82 0,5.78 -2.25,0 -4.3,0 -6.49,0 0,-1.96 0,-3.88 0,-6.02 2.02,0 4.02,0 6.19,0 0,-1.88 0,-3.55 0,-5.35 2.1,0 4.02,0 6.06,0 0.01,1.84 0.01,3.61 0.01,5.59 z m 11.24,134.45 c 0,-3.96 0,-7.77 0,-11.74 3.88,0 7.75,0 11.77,0 0,3.88 0,7.75 0,11.74 -3.92,0 -7.76,0 -11.77,0 z m 70.49,29.4 c -3.95,0 -7.79,0 -11.78,0 0,-3.92 0,-7.76 0,-11.82 1.91,0 3.76,0 5.79,0 0,-2.04 0,-3.86 0,-5.82 2.1,0 4.01,0 6.01,0 0,2.13 0,4.18 0,6.43 -1.9,0 -3.75,0 -5.68,0 0,1.8 0,3.39 0,5.16 1.86,0 3.68,0 5.65,0 0.01,2.09 0.01,4 0.01,6.05 z M 22.07,118.03 c 0,-5.92 0,-11.73 0,-17.74 1.94,0 3.79,0 5.71,0 0,-2.07 0,-3.94 0,-6.02 -1.84,0 -3.7,0 -5.67,0 0,-1.98 0,-3.75 0,-5.65 1.98,0 3.9,0 5.99,0 0,1.75 0,3.42 0,5.19 1.79,0 3.41,0 5.2,0 0,-1.73 0,-3.4 0,-5.19 2.24,0 4.31,0 6.5,0 0,1.83 0,3.58 0,5.53 -2.03,0 -4.03,0 -6.2,0 0,2.18 0,4.15 0,6.33 -1.86,0 -3.56,0 -5.42,0 0,5.94 0,11.68 0,17.55 -2.09,0 -4.01,0 -6.11,0 z m 66.51,26.58 c 0.02,-0.4 -0.02,-0.7 0.05,-0.97 0.65,-2.35 1.39,-4.68 1.93,-7.05 0.17,-0.76 0.01,-1.71 -0.29,-2.46 -1.18,-2.97 -2.1,-6.03 -1.67,-9.21 0.31,-2.3 0.91,-4.7 2,-6.73 3.34,-6.21 8.55,-9.69 15.79,-9.73 7.81,-0.04 13.47,3.54 16.81,10.5 1.66,3.45 1.92,7.2 1.17,11.08 -0.91,4.76 -3.33,8.41 -7.19,11.14 -4.31,3.05 -9.15,3.76 -14.26,2.73 -1.42,-0.29 -2.76,-0.92 -4.16,-1.27 -0.66,-0.16 -1.43,-0.15 -2.09,0.02 -2.43,0.62 -4.84,1.33 -7.26,1.99 -0.19,0.07 -0.42,-0.01 -0.83,-0.04 z m 4.52,-4.23 c 0.9,-0.24 1.52,-0.37 2.12,-0.56 1.96,-0.63 3.78,-0.62 5.74,0.34 1.5,0.74 3.29,1.14 4.97,1.24 4.56,0.27 8.41,-1.44 11.58,-4.73 4.23,-4.39 5.21,-11.55 2.29,-16.92 -2.51,-4.62 -6.4,-7.41 -11.56,-7.92 -5.66,-0.56 -10.34,1.53 -13.69,6.31 -3.3,4.7 -3.72,9.69 -1.25,14.77 0.85,1.76 1.08,3.23 0.38,4.98 -0.29,0.71 -0.36,1.51 -0.58,2.49 z M 62.84,82.83 c -13.6,0 -27.09,0 -40.72,0 0,-13.55 0,-27.05 0,-40.72 13.59,0 27.1,0 40.72,0 0,13.56 0,27.05 0,40.72 z M 56.75,48.25 c -9.56,0 -19.01,0 -28.51,0 0,9.54 0,18.98 0,28.43 9.55,0 19.01,0 28.51,0 0,-9.48 0,-18.87 0,-28.43 z M 191.6,42.08 c 0,13.67 0,27.15 0,40.75 -13.77,0 -27.43,0 -41.21,0 0,-13.61 0,-27.13 0,-40.75 13.76,0 27.43,0 41.21,0 z m -6.14,5.72 c -9.57,0 -19,0 -28.47,0 0,9.66 0,19.23 0,28.84 9.54,0 18.99,0 28.47,0 0,-9.66 0,-19.2 0,-28.84 z M 62.84,170.38 c 0,13.77 0,27.43 0,41.21 -13.62,0 -27.14,0 -40.76,0 0,-13.77 0,-27.43 0,-41.21 13.63,0 27.14,0 40.76,0 z m -34.59,6.61 c 0,9.39 0,18.66 0,27.93 9.55,0 19,0 28.45,0 0,-9.36 0,-18.61 0,-27.93 -9.5,0 -18.93,0 -28.45,0 z m 46.07,28.59 c 0,-1.85 0,-3.41 0,-5.19 -1.89,0 -3.74,0 -5.7,0 0,-2.25 0,-4.3 0,-6.6 1.87,0 3.71,0 5.66,0 0,-1.95 0,-3.65 0,-5.57 -1.92,0 -3.73,0 -5.65,0 0,-2.15 0,-4.07 0,-6.2 3.9,0 7.71,0 11.59,0 0,-5.83 0,-11.46 0,-17.2 -1.82,0 -3.59,0 -5.53,0 0,2.01 0,3.98 0,6.08 -2.09,0 -4.01,0 -6.06,0 0,-2.13 0,-4.21 0,-6.45 1.9,0 3.73,0 5.75,0 0,-5.93 0,-11.69 0,-17.57 2.13,0 4.05,0 6.15,0 0,1.92 0,3.74 0,5.67 1.92,0 3.67,0 5.59,0 0,-1.52 0,-3.07 0,-4.51 3.74,-1.84 7.6,-1.11 11.23,-1.32 0.2,-0.69 0.36,-1.28 0.54,-1.92 4.21,1.74 8.23,2.43 12.57,1.58 4.25,-0.84 7.82,-2.73 11.06,-5.98 0,8.22 0,16.14 0,24.27 -1.91,0 -3.77,0 -5.77,0 0,2.17 0,4.14 0,6.31 -3.95,0 -7.76,0 -11.73,0 0,2.02 0,3.84 0,5.87 -2.01,0 -3.86,0 -5.78,0 0,3.73 0,7.25 0,10.98 1.86,0 3.71,0 5.72,0 0,2.02 0,3.84 0,5.87 2,0 3.86,0 5.83,0 0,2.28 0,4.35 0,6.64 -1.91,0 -3.76,0 -5.68,0 0,1.62 0,3.03 0,4.57 3.74,0 7.47,0 11.36,0 0,-1.68 0,-3.35 0,-5.16 4.04,0 7.92,0 11.93,0 0,1.96 0,3.87 0,5.98 -1.91,0 -3.74,0 -5.75,0 0,2 0,3.82 0,5.79 -13.85,0 -27.5,0 -41.35,0 0,-1.91 0,-3.72 0,-5.63 -1.94,0 -3.68,0 -5.61,0 0,1.86 0,3.68 0,5.64 -2.09,0 -4.01,0 -6.07,0 0,-1.98 0,-3.87 0,-5.97 1.86,0.02 3.71,0.02 5.7,0.02 z m 6.35,-46.78 c 0,1.99 0,3.73 0,5.64 1.93,0 3.75,0 5.73,0 0,1.99 0,3.81 0,5.72 5.7,0 11.23,0 16.82,0 0,-3.79 0,-7.49 0,-11.39 -1.78,0 -3.48,0 -5.34,0 0,-1.88 0,-3.55 0,-5.25 -3.9,0 -7.63,0 -11.52,0 0,1.78 0,3.45 0,5.28 -1.98,0 -3.8,0 -5.69,0 z m 16.7,29.32 c -3.79,0 -7.45,0 -11.25,0 0,-2.02 0,-3.84 0,-5.7 -1.91,0 -3.65,0 -5.48,0 0,3.79 0,7.49 0,11.39 3.88,0 7.69,0 11.65,0 0,2.02 0,3.84 0,5.71 1.79,0 3.41,0 5.08,0 0,-3.78 0,-7.45 0,-11.4 z m -5.43,12.4 c -3.84,0 -7.57,0 -11.32,0 0,1.53 0,2.94 0,4.43 3.8,0 7.53,0 11.32,0 0,-1.51 0,-2.92 0,-4.43 z m 23.46,-41.64 c 0,-1.79 0,-3.56 0,-5.34 -1.85,0 -3.62,0 -5.41,0 0,1.83 0,3.54 0,5.34 1.78,0 3.49,0 5.41,0 z m -12.16,-6.31 c 0,-1.72 0,-3.29 0,-4.93 -1.69,0 -3.31,0 -4.97,0 0,1.69 0,3.28 0,4.93 1.68,0 3.28,0 4.97,0 z m 29.69,35.42 c 0,1.93 0,3.75 0,5.66 2.06,0 3.96,0 6.06,0 0,-11.5 0,-22.98 0,-34.63 5.79,0 11.38,0 17.07,0 0,-1.91 0,-3.65 0,-5.6 -1.84,0 -3.7,0 -5.71,0 0,-3.98 0,-7.76 0,-11.65 -1.94,0 -3.71,0 -5.65,0 0,1.87 0,3.69 0,5.64 -4.05,0 -7.93,0 -11.93,0 0,-2.12 0,-4.2 0,-6.48 3.88,0 7.69,0 11.66,0 0,-2.03 0,-3.85 0,-5.87 2.01,0 3.86,0 5.78,0 0,-1.77 0,-3.33 0,-5.11 -1.86,0 -3.71,0 -5.72,0 0,-2.02 0,-3.84 0,-5.78 -5.71,0 -11.25,0 -16.89,0 0,1.75 0,3.48 0,5.43 3.93,0 7.7,0 11.59,0 0,2.14 0,4.06 0,6.04 -4.66,0 -9.22,0 -13.96,0 0.11,-0.54 0.11,-0.93 0.27,-1.23 1.43,-2.66 1.31,-5.57 1.4,-8.45 0.21,-6.54 -2.77,-11.54 -7.61,-15.59 -1.08,-0.9 -2.37,-1.55 -3.7,-2.41 -0.06,-0.31 -0.15,-0.79 -0.27,-1.44 -3.89,-0.17 -7.81,-0.34 -11.95,-0.52 0,-1.57 0,-3.42 0,-5.35 -1.8,0 -3.4,0 -5.09,0 0,1.77 0,3.51 0,5.55 1.41,0 2.82,0 4.22,0 0,0.13 0.01,0.25 0.01,0.38 -1.46,0.43 -2.92,0.86 -4.61,1.35 -0.15,-0.35 -0.35,-0.82 -0.6,-1.4 -1.56,0 -3.19,0 -4.99,0 0,1.88 0,3.7 0,5.73 -3.97,0 -7.78,0 -11.67,0 0,1.77 0,3.33 0,5.15 2.46,0 4.94,0 7.91,0 -2.43,4.06 -2.18,8.18 -2.08,12.47 -2.03,0 -3.88,0 -5.82,0 0,1.78 0,3.34 0,5.12 1.84,0 3.69,0 5.66,0 0,2.28 0,4.36 0,6.56 -1.98,0 -3.9,0 -5.99,0 0,-2.05 0,-4.02 0,-6.09 -1.94,0 -3.71,0 -5.65,0 0,2.03 0,4.01 0,6.18 -5.93,0 -11.69,0 -17.53,0 0,1.77 0,3.33 0,5.11 3.97,0 7.93,0 12.01,0 0,4.24 0,8.27 0,12.51 -2.07,0 -4.07,0 -6.23,0 0,1.88 0,3.55 0,5.33 -2.09,0 -4.01,0 -6.04,0 0,-1.99 0,-3.89 0,-5.99 1.88,0 3.74,0 5.68,0 0,-1.8 0,-3.39 0,-5.19 -1.87,0 -3.73,0 -5.74,0 0,-2.02 0,-3.85 0,-5.76 -1.94,0 -3.71,0 -5.66,0 0,1.9 0,3.72 0,5.71 -1.84,0 -3.51,0 -5.28,0 0,1.76 0,3.35 0,5.05 1.62,0 3.24,0 5.03,0 0,-1.56 0,-3.08 0,-4.73 1.79,0 3.41,0 5.15,0 0,4.4 0,8.73 0,13.17 -1.72,0 -3.34,0 -5.06,0 -0.06,-0.72 -0.11,-1.34 -0.18,-2.13 -1.86,0 -3.69,0 -5.72,0 0,-1.86 0,-3.55 0,-5.42 -2.02,0 -3.85,0 -5.87,0 0,-2.01 0,-3.86 0,-5.8 -1.98,0 -3.76,0 -5.69,0 0,1.91 0,3.73 0,5.73 -1.86,0 -3.57,0 -5.4,0 0,1.85 0,3.53 0,5.34 -2.06,0 -3.98,0 -6,0 0,-1.97 0,-3.89 0,-6 1.75,0 3.46,0 5.24,0 0,-1.77 0,-3.36 0,-5.16 -1.77,0 -3.48,0 -5.26,0 0,-2.26 0,-4.31 0,-6.54 1.87,0 3.73,0 5.75,0 0,-7.9 0,-15.63 0,-23.56 3.83,0 7.49,0 11.24,0 0,-1.77 0,-3.33 0,-5.13 -1.86,0 -3.71,0 -5.7,0 0,-4.08 0,-7.93 0,-11.98 3.81,0 7.62,0 11.59,0 0,-5.94 0,-11.68 0,-17.56 2.23,0 4.3,0 6.55,0 0,1.68 0,3.34 0,5.14 1.79,0 3.41,0 5.23,0 0,-1.65 0,-3.31 0,-5.09 2.08,0 3.97,0 6.06,0 0,1.69 0,3.35 0,5.22 2.05,0 3.9,0 5.92,0 0,2.18 0,4.15 0,6.22 1.94,0 3.71,0 5.66,0 0,-2.05 0,-4.02 0,-6.16 2,0 3.82,0 5.75,0 0,-1.61 0,-3.05 0,-4.7 -1.84,0 -3.7,0 -5.71,0 0,-2.18 0,-4.15 0,-6.33 -2.01,0 -3.86,0 -5.83,0 0,-2.13 0,-4.05 0,-6.14 1.92,0 3.74,0 5.66,0 0,-1.91 0,-3.65 0,-5.61 -1.85,0 -3.7,0 -5.67,0 0,-2.13 0,-4.05 0,-6.14 1.77,0 3.45,0 5.22,0 0,-3.87 0,-7.56 0,-11.47 -1.7,0 -3.41,0 -5.22,0 0,-2.13 0,-4.05 0,-6.08 7.87,0 15.64,0 23.55,0 0,6.03 0,12.02 0,18.22 -1.87,0 -3.73,0 -5.66,0 0,1.8 0,3.39 0,5.15 1.88,0 3.7,0 5.73,0 0,2.01 0,3.86 0,5.88 2.18,0 4.15,0 6.29,0 0,5.75 0,11.33 0,17.13 1.86,0 3.56,0 5.42,0 0,2.18 0,4.14 0,6.24 1.94,0 3.71,0 5.65,0 0,-1.96 0,-3.94 0,-6.12 2.01,0 3.86,0 5.81,0 0,-1.65 0,-3.09 0,-4.73 -1.85,0 -3.71,0 -5.73,0 0,-2.16 0,-4.13 0,-6.32 -2.16,0 -4.17,0 -6.32,0 0,-3.99 0,-7.77 0,-11.75 -2.01,0 -3.86,0 -5.82,0 0,-4.09 0,-7.97 0,-11.96 2.15,0 4.2,0 6.45,0 0,3.85 0,7.65 0,11.55 3.91,0 7.62,0 11.42,0 0,-3.57 0,-7.12 0,-10.89 -1.86,0 -3.71,0 -5.67,0 0,-2.26 0,-4.3 0,-6.5 1.98,0 3.93,0 6,0 0,1.88 0,3.67 0,5.6 5.66,0 11.2,0 16.84,0 0,-1.73 0,-3.47 0,-5.43 -1.86,0 -3.71,0 -5.67,0 0,-2.1 0,-4 0,-6.04 4.06,0 8.09,0 12.29,0 0,3.78 0,7.56 0,11.55 1.86,0 3.56,0 5.39,0 0,2.28 0,4.35 0,6.64 -3.69,0 -7.35,0 -11.09,0 0,1.77 0,3.33 0,5.12 1.85,0 3.7,0 5.71,0 0,2.04 0,3.85 0,5.89 1.86,0 3.56,0 5.39,0 0,4.24 0,8.27 0,12.51 -7.64,0 -15.21,0 -22.85,0 0,5.69 0,11.17 0,16.76 1.64,0 3.26,0 5.05,0 0,-3.95 0,-7.88 0,-11.94 2.24,0 4.31,0 6.55,0 0,3.98 0,7.9 0,11.94 3.74,0 7.32,0 11.08,0 0,-3.99 0,-7.91 0,-11.96 4.05,0 7.93,0 11.98,0 0,2.05 0,4.02 0,6.1 3.9,0 7.63,0 11.43,0 0,-1.78 0,-3.5 0,-5.42 -1.86,0 -3.71,0 -5.68,0 0,-2.13 0,-4.05 0,-6.1 1.99,0 3.92,0 6,0 0,1.76 0,3.43 0,5.3 2.01,0 3.86,0 5.88,0 0,2.18 0,4.15 0,6.22 3.9,0 7.63,0 11.43,0 0,-1.79 0,-3.5 0,-5.44 -1.89,0 -3.74,0 -5.7,0 0,-2.14 0,-4.06 0,-6.1 2,0 3.89,0 6,0 0,1.88 0,3.73 0,5.75 2.03,0 3.86,0 5.81,0 0,4.06 0,7.94 0,12.03 -1.89,0 -3.75,0 -5.67,0 0,1.92 0,3.63 0,5.56 1.84,0 3.69,0 5.67,0 0,6.05 0,11.88 0,17.93 -1.9,0 -3.75,0 -5.67,0 0,1.92 0,3.63 0,5.56 1.84,0 3.69,0 5.67,0 0,6.05 0,11.88 0,17.93 -1.74,0 -3.45,0 -5.31,0 0,2.03 0,3.85 0,5.79 -2.24,0 -4.31,0 -6.55,0 0,-3.84 0,-7.62 0,-11.51 -3.9,0 -7.63,0 -11.44,0 0,1.76 0,3.48 0,5.4 2,0 4,0 6.13,0 0,2.28 0,4.36 0,6.64 -2.05,0 -4.05,0 -6.13,0 0,3.58 0,6.95 0,10.44 1.77,0 3.54,0 5.48,0 0,-1.82 0,-3.64 0,-5.6 6.02,0 11.89,0 17.81,0 0,5.89 0,11.66 0,17.69 -1.92,0 -3.77,0 -5.8,0 0,2.06 0,3.88 0,5.9 -1.85,0 -3.52,0 -5.35,0 0,2.02 0,3.84 0,5.87 -2.16,0 -4.16,0 -6.33,0 0,2.18 0,4.15 0,6.33 -2.01,0 -3.86,0 -5.8,0 0,1.65 0,3.09 0,4.74 1.88,0 3.73,0 5.68,0 0,2.25 0,4.3 0,6.49 -5.88,0 -11.71,0 -17.69,0 0,-2.09 0,-4.17 0,-6.45 1.89,0 3.74,0 5.67,0 0,-1.62 0,-3.03 0,-4.66 -1.83,0 -3.68,0 -5.7,0 0,-4.13 0,-8.06 0,-12.11 -3.89,0 -7.63,0 -11.46,0 0,1.73 0,3.47 0,5.4 2.01,0 3.98,0 6.1,0 0,4.06 0,7.94 0,12.02 -2.02,0 -4.02,0 -6.21,0 0,2.02 0,3.84 0,5.8 -1.92,0 -3.66,0 -5.58,0 0,-1.87 0,-3.69 0,-5.71 -2.19,0 -4.19,0 -6.37,0 0,-3.98 0,-7.75 0,-11.75 -3.98,0 -7.78,0 -11.7,0 0,-2.14 0,-4.06 0,-6.1 3.97,0 7.85,0 11.9,0 z m -52.72,-69.9 c -2.13,0 -4.14,0 -6.29,0 0,-2.03 0,-3.85 0,-5.87 -1.86,0 -3.57,0 -5.42,0 0,-3.98 0,-7.76 0,-11.57 -1.91,0 -3.66,0 -5.61,0 0,1.94 0,3.79 0,5.67 -2.1,0 -4,0 -6.09,0 0,-1.95 0,-3.8 0,-5.63 -1.83,0 -3.45,0 -5.23,0 0,7.82 0,15.51 0,23.41 -3.97,0 -7.78,0 -11.57,0 0,1.93 0,3.64 0,5.54 3.74,0 7.4,0 11.2,0 0,3.82 0,7.45 0,11.16 1.93,0 3.7,0 5.64,0 0,-1.77 0,-3.44 0,-5.31 2.01,0 3.86,0 5.72,0 0,-1.95 0,-3.69 0,-5.62 -1.92,0 -3.75,0 -5.66,0 0,-2.25 0,-4.33 0,-6.61 1.97,0 3.82,0 5.69,0 0,-1.77 0,-3.34 0,-5.11 -1.91,0 -3.77,0 -5.69,0 0,-2.28 0,-4.36 0,-6.49 2.05,0 3.97,0 6.03,0 0,1.95 0,3.78 0,5.79 2.14,0 4.14,0 6.25,0 0,2.25 0,4.33 0,6.61 -2.12,0 -4.12,0 -6.1,0 0,1.95 0,3.69 0,5.44 5.77,0 11.43,0 17.15,0 -0.02,-3.77 -0.02,-7.44 -0.02,-11.41 z m 87.65,28.6 c 0,-3.69 0,-7.2 0,-10.93 -1.93,0 -3.79,0 -5.71,0 0,-2.13 0,-4.05 0,-6.17 1.98,0 3.83,0 5.69,0 0,-5.86 0,-11.51 0,-17.35 -1.92,0 -3.75,0 -5.75,0 0,-1.99 0,-3.81 0,-5.71 -5.87,0 -11.56,0 -17.28,0 0,3.65 0,7.2 0,10.75 1.87,0 3.64,0 5.58,0 0,-1.79 0,-3.46 0,-5.15 2.24,0 4.31,0 6.43,0 0,4 0,7.85 0,11.91 -1.95,0 -3.81,0 -5.69,0 0,1.95 0,3.69 0,5.64 1.94,0 3.79,0 5.8,0 0,3.83 0,7.46 0,11.29 1.86,0 3.57,0 5.42,0 0,2.03 0,3.85 0,5.71 1.91,0.01 3.66,0.01 5.51,0.01 z m 5.93,-46 c -1.98,0 -3.75,0 -5.5,0 0,3.8 0,7.47 0,11.35 1.93,0 3.79,0 5.78,0 0,9.71 0,19.2 0,28.75 1.93,0 3.7,0 5.64,0 0,-5.84 0,-11.57 0,-17.51 2.01,0 3.86,0 5.72,0 0,-1.8 0,-3.39 0,-5.19 -1.94,0 -3.8,0 -5.8,0 0,-3.98 0,-7.76 0,-11.74 -2.01,0 -3.86,0 -5.84,0 0,-1.98 0,-3.78 0,-5.66 z m -11.85,81.3 c 0,-5.85 0,-11.5 0,-17.16 -5.79,0 -11.47,0 -17.18,0 0,5.78 0,11.44 0,17.16 5.77,0 11.43,0 17.18,0 z m 17.75,-10.85 c -1.98,0 -3.75,0 -5.7,0 0,3.72 0,7.34 0,11.16 -2.02,0 -3.87,0 -5.7,0 0,3.91 0,7.61 0,11.33 1.87,0 3.64,0 5.58,0 0,-1.94 0,-3.76 0,-5.78 2.01,0 3.86,0 5.86,0 0,-2 0,-3.78 0,-5.79 2,0 3.85,0 5.73,0 0,-1.82 0,-3.41 0,-5.21 -1.93,0 -3.79,0 -5.76,0 -0.01,-1.99 -0.01,-3.78 -0.01,-5.71 z M 126.82,76.75 c 2.19,0 4.19,0 6.2,0 0,-1.95 0,-3.69 0,-5.46 -3.81,0 -7.51,0 -11.27,0 0,3.79 0,7.48 0,11.23 1.7,0 3.32,0 5.07,0 0,-1.9 0,-3.69 0,-5.77 z m -81.89,75.81 c 0,-5.63 0,-11.13 0,-16.64 -1.72,0 -3.34,0 -4.96,0 0,5.6 0,11.08 0,16.64 1.68,0 3.27,0 4.96,0 z m 70.89,-64.17 c 1.91,0 3.68,0 5.47,0 0,-1.85 0,-3.58 0,-5.35 -1.87,0 -3.65,0 -5.47,0 0,1.81 0,3.52 0,5.35 z M 86.08,71.32 c -1.9,0 -3.67,0 -5.45,0 0,1.84 0,3.55 0,5.33 1.85,0 3.62,0 5.45,0 0,-1.81 0,-3.53 0,-5.33 z m 0.42,11.2 c 1.86,0 3.63,0 5.41,0 0,-1.85 0,-3.59 0,-5.36 -1.85,0 -3.59,0 -5.41,0 0,1.8 0,3.51 0,5.36 z m 0,23.5 c 1.84,0 3.61,0 5.42,0 0,-1.84 0,-3.58 0,-5.34 -1.86,0 -3.63,0 -5.42,0 0,1.83 0,3.54 0,5.34 z m -23.93,-5.87 c 0,-1.83 0,-3.57 0,-5.35 -1.86,0 -3.63,0 -5.4,0 0,1.85 0,3.59 0,5.35 1.85,0 3.59,0 5.4,0 z m 99.86,53.34 c 0,1.9 0,3.63 0,5.39 1.85,0 3.6,0 5.39,0 0,-1.83 0,-3.57 0,-5.39 -1.83,0 -3.58,0 -5.39,0 z M 80.19,77.17 c -1.9,0 -3.64,0 -5.41,0 0,1.84 0,3.58 0,5.34 1.86,0 3.63,0 5.41,0 0,-1.83 0,-3.54 0,-5.34 z m 58.73,0.02 c -1.86,0 -3.63,0 -5.41,0 0,1.86 0,3.59 0,5.35 1.85,0 3.59,0 5.41,0 0,-1.8 0,-3.51 0,-5.35 z m -64.14,23.46 c 0,1.87 0,3.61 0,5.34 1.87,0 3.64,0 5.41,0 0,-1.84 0,-3.55 0,-5.34 -1.81,0 -3.56,0 -5.41,0 z m 40.66,-23.47 c -1.87,0 -3.64,0 -5.4,0 0,1.85 0,3.59 0,5.35 1.85,0 3.6,0 5.4,0 0,-1.8 0,-3.52 0,-5.35 z m 12.19,29.34 c 0,1.86 0,3.6 0,5.34 1.72,0 3.34,0 4.96,0 0,-1.84 0,-3.55 0,-5.34 -1.66,0 -3.26,0 -4.96,0 z M 33.64,134.9 c 1.9,0 3.67,0 5.44,0 0,-1.69 0,-3.25 0,-4.86 -1.84,0 -3.61,0 -5.44,0 0,1.67 0,3.23 0,4.86 z m 105.71,64.64 c 1.74,0 3.33,0 4.98,0 0,-1.83 0,-3.57 0,-5.34 -1.7,0 -3.32,0 -4.98,0 0,1.82 0,3.53 0,5.34 z M 28.19,152.55 c 1.71,0 3.33,0 5.01,0 0,-1.68 0,-3.27 0,-4.89 -1.71,0 -3.33,0 -5.01,0 0,1.68 0,3.23 0,4.89 z m 152.28,-10.8 c 0,1.73 0,3.29 0,4.92 1.69,0 3.31,0 4.97,0 0,-1.69 0,-3.28 0,-4.92 -1.69,0 -3.29,0 -4.97,0 z M 91.97,89.37 c -1.89,0 -3.66,0 -5.45,0 0,1.55 0,2.99 0,4.42 1.87,0 3.65,0 5.45,0 0,-1.51 0,-2.9 0,-4.42 z m 110.46,50.72 26.36,26.37 -26.36,26.36 z m 7.13,0.13 26.36,26.36 -26.36,26.36 z M 189,26.46 c 10.04,0 18.2,8.17 18.2,18.2 V 209 c 0,10.04 -8.17,18.2 -18.2,18.2 H 24.67 C 14.63,227.2 6.47,219.03 6.47,209 V 44.67 c 0,-10.04 8.17,-18.2 18.2,-18.2 H 189 m 0,-4.25 H 24.67 C 12.27,22.22 2.22,32.27 2.22,44.67 V 209 c 0,12.4 10.05,22.45 22.45,22.45 H 189 c 12.4,0 22.45,-10.05 22.45,-22.45 V 44.67 C 211.45,32.27 201.4,22.22 189,22.22 Z M 24.67,229.32 C 13.46,229.32 4.34,220.2 4.34,208.99 V 44.67 c 0,-11.21 9.12,-20.33 20.33,-20.33 H 189 c 11.21,0 20.33,9.12 20.33,20.33 V 209 c 0,11.21 -9.12,20.33 -20.33,20.33 H 24.67 Z m 192.06,-94.43 31.69,31.69 -31.75,31.69 z M 31.78,22.22 h 164.33 c 12.4,0 22.45,10.05 22.51,22.45 V 209 c -0.06,12.4 -10.11,22.45 -22.51,22.45 H 31.78 C 19.38,231.45 9.33,221.4 9.33,209 V 44.67 c 0,-12.4 10.06,-22.45 22.45,-22.45 z" />
</g></g><g
   id="g1158"
   transform="translate(22.306659,2.815168)"><g
     id="g22">
	<g
   id="g8">
		<path
   class="st0"
   d="m 31.78,22.22 h 164.33 c 12.4,0 22.45,10.05 22.51,22.45 V 209 c -0.06,12.4 -10.11,22.45 -22.51,22.45 H 31.78 C 19.38,231.45 9.33,221.4 9.33,209 V 44.67 c 0,-12.4 10.06,-22.45 22.45,-22.45 z"
   id="path4" />
		<polygon
   class="st0"
   points="216.73,66.89 248.42,98.58 216.67,130.27 "
   id="polygon6"
   transform="translate(0,68)" />
	</g>
	<g
   id="g20">
		<g
   id="g14">
			<path
   class="st1"
   d="M 24.67,229.32 C 13.46,229.32 4.34,220.2 4.34,208.99 V 44.67 c 0,-11.21 9.12,-20.33 20.33,-20.33 H 189 c 11.21,0 20.33,9.12 20.33,20.33 V 209 c 0,11.21 -9.12,20.33 -20.33,20.33 H 24.67 Z"
   id="path10" />
			<path
   d="m 189,26.46 c 10.04,0 18.2,8.17 18.2,18.2 V 209 c 0,10.04 -8.17,18.2 -18.2,18.2 H 24.67 C 14.63,227.2 6.47,219.03 6.47,209 V 44.67 c 0,-10.04 8.17,-18.2 18.2,-18.2 H 189 m 0,-4.25 H 24.67 C 12.27,22.22 2.22,32.27 2.22,44.67 V 209 c 0,12.4 10.05,22.45 22.45,22.45 H 189 c 12.4,0 22.45,-10.05 22.45,-22.45 V 44.67 C 211.45,32.27 201.4,22.22 189,22.22 Z"
   id="path12" />
		</g>
		<polygon
   points="209.56,72.22 235.92,98.58 209.56,124.94 "
   id="polygon16"
   transform="translate(0,68)" />
		<polygon
   class="st1"
   points="202.43,72.09 228.79,98.46 202.43,124.82 "
   id="polygon18"
   transform="translate(0,68)" />
	</g>
</g><g
     id="g58">
	<path
   d="m 132.93,187.99 c 0,1.93 0,3.75 0,5.66 2.06,0 3.96,0 6.06,0 0,-11.5 0,-22.98 0,-34.63 5.79,0 11.38,0 17.07,0 0,-1.91 0,-3.65 0,-5.6 -1.84,0 -3.7,0 -5.71,0 0,-3.98 0,-7.76 0,-11.65 -1.94,0 -3.71,0 -5.65,0 0,1.87 0,3.69 0,5.64 -4.05,0 -7.93,0 -11.93,0 0,-2.12 0,-4.2 0,-6.48 3.88,0 7.69,0 11.66,0 0,-2.03 0,-3.85 0,-5.87 2.01,0 3.86,0 5.78,0 0,-1.77 0,-3.33 0,-5.11 -1.86,0 -3.71,0 -5.72,0 0,-2.02 0,-3.84 0,-5.78 -5.71,0 -11.25,0 -16.89,0 0,1.75 0,3.48 0,5.43 3.93,0 7.7,0 11.59,0 0,2.14 0,4.06 0,6.04 -4.66,0 -9.22,0 -13.96,0 0.11,-0.54 0.11,-0.93 0.27,-1.23 1.43,-2.66 1.31,-5.57 1.4,-8.45 0.21,-6.54 -2.77,-11.54 -7.61,-15.59 -1.08,-0.9 -2.37,-1.55 -3.7,-2.41 -0.06,-0.31 -0.15,-0.79 -0.27,-1.44 -3.89,-0.17 -7.81,-0.34 -11.95,-0.52 0,-1.57 0,-3.42 0,-5.35 -1.8,0 -3.4,0 -5.09,0 0,1.77 0,3.51 0,5.55 1.41,0 2.82,0 4.22,0 0,0.13 0.01,0.25 0.01,0.38 -1.46,0.43 -2.92,0.86 -4.61,1.35 -0.15,-0.35 -0.35,-0.82 -0.6,-1.4 -1.56,0 -3.19,0 -4.99,0 0,1.88 0,3.7 0,5.73 -3.97,0 -7.78,0 -11.67,0 0,1.77 0,3.33 0,5.15 2.46,0 4.94,0 7.91,0 -2.43,4.06 -2.18,8.18 -2.08,12.47 -2.03,0 -3.88,0 -5.82,0 0,1.78 0,3.34 0,5.12 1.84,0 3.69,0 5.66,0 0,2.28 0,4.36 0,6.56 -1.98,0 -3.9,0 -5.99,0 0,-2.05 0,-4.02 0,-6.09 -1.94,0 -3.71,0 -5.65,0 0,2.03 0,4.01 0,6.18 -5.93,0 -11.69,0 -17.53,0 0,1.77 0,3.33 0,5.11 3.97,0 7.93,0 12.01,0 0,4.24 0,8.27 0,12.51 -2.07,0 -4.07,0 -6.23,0 0,1.88 0,3.55 0,5.33 -2.09,0 -4.01,0 -6.04,0 0,-1.99 0,-3.89 0,-5.99 1.88,0 3.74,0 5.68,0 0,-1.8 0,-3.39 0,-5.19 -1.87,0 -3.73,0 -5.74,0 0,-2.02 0,-3.85 0,-5.76 -1.94,0 -3.71,0 -5.66,0 0,1.9 0,3.72 0,5.71 -1.84,0 -3.51,0 -5.28,0 0,1.76 0,3.35 0,5.05 1.62,0 3.24,0 5.03,0 0,-1.56 0,-3.08 0,-4.73 1.79,0 3.41,0 5.15,0 0,4.4 0,8.73 0,13.17 -1.72,0 -3.34,0 -5.06,0 -0.06,-0.72 -0.11,-1.34 -0.18,-2.13 -1.86,0 -3.69,0 -5.72,0 0,-1.86 0,-3.55 0,-5.42 -2.02,0 -3.85,0 -5.87,0 0,-2.01 0,-3.86 0,-5.8 -1.98,0 -3.76,0 -5.69,0 0,1.91 0,3.73 0,5.73 -1.86,0 -3.57,0 -5.4,0 0,1.85 0,3.53 0,5.34 -2.06,0 -3.98,0 -6,0 0,-1.97 0,-3.89 0,-6 1.75,0 3.46,0 5.24,0 0,-1.77 0,-3.36 0,-5.16 -1.77,0 -3.48,0 -5.26,0 0,-2.26 0,-4.31 0,-6.54 1.87,0 3.73,0 5.75,0 0,-7.9 0,-15.63 0,-23.56 3.83,0 7.49,0 11.24,0 0,-1.77 0,-3.33 0,-5.13 -1.86,0 -3.71,0 -5.7,0 0,-4.08 0,-7.93 0,-11.98 3.81,0 7.62,0 11.59,0 0,-5.94 0,-11.68 0,-17.56 2.23,0 4.3,0 6.55,0 0,1.68 0,3.34 0,5.14 1.79,0 3.41,0 5.23,0 0,-1.65 0,-3.31 0,-5.09 2.08,0 3.97,0 6.06,0 0,1.69 0,3.35 0,5.22 2.05,0 3.9,0 5.92,0 0,2.18 0,4.15 0,6.22 1.94,0 3.71,0 5.66,0 0,-2.05 0,-4.02 0,-6.16 2,0 3.82,0 5.75,0 0,-1.61 0,-3.05 0,-4.7 -1.84,0 -3.7,0 -5.71,0 0,-2.18 0,-4.15 0,-6.33 -2.01,0 -3.86,0 -5.83,0 0,-2.13 0,-4.05 0,-6.14 1.92,0 3.74,0 5.66,0 0,-1.91 0,-3.65 0,-5.61 -1.85,0 -3.7,0 -5.67,0 0,-2.13 0,-4.05 0,-6.14 1.77,0 3.45,0 5.22,0 0,-3.87 0,-7.56 0,-11.47 -1.7,0 -3.41,0 -5.22,0 0,-2.13 0,-4.05 0,-6.08 7.87,0 15.64,0 23.55,0 0,6.03 0,12.02 0,18.22 -1.87,0 -3.73,0 -5.66,0 0,1.8 0,3.39 0,5.15 1.88,0 3.7,0 5.73,0 0,2.01 0,3.86 0,5.88 2.18,0 4.15,0 6.29,0 0,5.75 0,11.33 0,17.13 1.86,0 3.56,0 5.42,0 0,2.18 0,4.14 0,6.24 1.94,0 3.71,0 5.65,0 0,-1.96 0,-3.94 0,-6.12 2.01,0 3.86,0 5.81,0 0,-1.65 0,-3.09 0,-4.73 -1.85,0 -3.71,0 -5.73,0 0,-2.16 0,-4.13 0,-6.32 -2.16,0 -4.17,0 -6.32,0 0,-3.99 0,-7.77 0,-11.75 -2.01,0 -3.86,0 -5.82,0 0,-4.09 0,-7.97 0,-11.96 2.15,0 4.2,0 6.45,0 0,3.85 0,7.65 0,11.55 3.91,0 7.62,0 11.42,0 0,-3.57 0,-7.12 0,-10.89 -1.86,0 -3.71,0 -5.67,0 0,-2.26 0,-4.3 0,-6.5 1.98,0 3.93,0 6,0 0,1.88 0,3.67 0,5.6 5.66,0 11.2,0 16.84,0 0,-1.73 0,-3.47 0,-5.43 -1.86,0 -3.71,0 -5.67,0 0,-2.1 0,-4 0,-6.04 4.06,0 8.09,0 12.29,0 0,3.78 0,7.56 0,11.55 1.86,0 3.56,0 5.39,0 0,2.28 0,4.35 0,6.64 -3.69,0 -7.35,0 -11.09,0 0,1.77 0,3.33 0,5.12 1.85,0 3.7,0 5.71,0 0,2.04 0,3.85 0,5.89 1.86,0 3.56,0 5.39,0 0,4.24 0,8.27 0,12.51 -7.64,0 -15.21,0 -22.85,0 0,5.69 0,11.17 0,16.76 1.64,0 3.26,0 5.05,0 0,-3.95 0,-7.88 0,-11.94 2.24,0 4.31,0 6.55,0 0,3.98 0,7.9 0,11.94 3.74,0 7.32,0 11.08,0 0,-3.99 0,-7.91 0,-11.96 4.05,0 7.93,0 11.98,0 0,2.05 0,4.02 0,6.1 3.9,0 7.63,0 11.43,0 0,-1.78 0,-3.5 0,-5.42 -1.86,0 -3.71,0 -5.68,0 0,-2.13 0,-4.05 0,-6.1 1.99,0 3.92,0 6,0 0,1.76 0,3.43 0,5.3 2.01,0 3.86,0 5.88,0 0,2.18 0,4.15 0,6.22 3.9,0 7.63,0 11.43,0 0,-1.79 0,-3.5 0,-5.44 -1.89,0 -3.74,0 -5.7,0 0,-2.14 0,-4.06 0,-6.1 2,0 3.89,0 6,0 0,1.88 0,3.73 0,5.75 2.03,0 3.86,0 5.81,0 0,4.06 0,7.94 0,12.03 -1.89,0 -3.75,0 -5.67,0 0,1.92 0,3.63 0,5.56 1.84,0 3.69,0 5.67,0 0,6.05 0,11.88 0,17.93 -1.9,0 -3.75,0 -5.67,0 0,1.92 0,3.63 0,5.56 1.84,0 3.69,0 5.67,0 0,6.05 0,11.88 0,17.93 -1.74,0 -3.45,0 -5.31,0 0,2.03 0,3.85 0,5.79 -2.24,0 -4.31,0 -6.55,0 0,-3.84 0,-7.62 0,-11.51 -3.9,0 -7.63,0 -11.44,0 0,1.76 0,3.48 0,5.4 2,0 4,0 6.13,0 0,2.28 0,4.36 0,6.64 -2.05,0 -4.05,0 -6.13,0 0,3.58 0,6.95 0,10.44 1.77,0 3.54,0 5.48,0 0,-1.82 0,-3.64 0,-5.6 6.02,0 11.89,0 17.81,0 0,5.89 0,11.66 0,17.69 -1.92,0 -3.77,0 -5.8,0 0,2.06 0,3.88 0,5.9 -1.85,0 -3.52,0 -5.35,0 0,2.02 0,3.84 0,5.87 -2.16,0 -4.16,0 -6.33,0 0,2.18 0,4.15 0,6.33 -2.01,0 -3.86,0 -5.8,0 0,1.65 0,3.09 0,4.74 1.88,0 3.73,0 5.68,0 0,2.25 0,4.3 0,6.49 -5.88,0 -11.71,0 -17.69,0 0,-2.09 0,-4.17 0,-6.45 1.89,0 3.74,0 5.67,0 0,-1.62 0,-3.03 0,-4.66 -1.83,0 -3.68,0 -5.7,0 0,-4.13 0,-8.06 0,-12.11 -3.89,0 -7.63,0 -11.46,0 0,1.73 0,3.47 0,5.4 2.01,0 3.98,0 6.1,0 0,4.06 0,7.94 0,12.02 -2.02,0 -4.02,0 -6.21,0 0,2.02 0,3.84 0,5.8 -1.92,0 -3.66,0 -5.58,0 0,-1.87 0,-3.69 0,-5.71 -2.19,0 -4.19,0 -6.37,0 0,-3.98 0,-7.75 0,-11.75 -3.98,0 -7.78,0 -11.7,0 0,-2.14 0,-4.06 0,-6.1 3.97,0 7.85,0 11.9,0 z m -52.72,-69.9 c -2.13,0 -4.14,0 -6.29,0 0,-2.03 0,-3.85 0,-5.87 -1.86,0 -3.57,0 -5.42,0 0,-3.98 0,-7.76 0,-11.57 -1.91,0 -3.66,0 -5.61,0 0,1.94 0,3.79 0,5.67 -2.1,0 -4,0 -6.09,0 0,-1.95 0,-3.8 0,-5.63 -1.83,0 -3.45,0 -5.23,0 0,7.82 0,15.51 0,23.41 -3.97,0 -7.78,0 -11.57,0 0,1.93 0,3.64 0,5.54 3.74,0 7.4,0 11.2,0 0,3.82 0,7.45 0,11.16 1.93,0 3.7,0 5.64,0 0,-1.77 0,-3.44 0,-5.31 2.01,0 3.86,0 5.72,0 0,-1.95 0,-3.69 0,-5.62 -1.92,0 -3.75,0 -5.66,0 0,-2.25 0,-4.33 0,-6.61 1.97,0 3.82,0 5.69,0 0,-1.77 0,-3.34 0,-5.11 -1.91,0 -3.77,0 -5.69,0 0,-2.28 0,-4.36 0,-6.49 2.05,0 3.97,0 6.03,0 0,1.95 0,3.78 0,5.79 2.14,0 4.14,0 6.25,0 0,2.25 0,4.33 0,6.61 -2.12,0 -4.12,0 -6.1,0 0,1.95 0,3.69 0,5.44 5.77,0 11.43,0 17.15,0 -0.02,-3.77 -0.02,-7.44 -0.02,-11.41 z m 87.65,28.6 c 0,-3.69 0,-7.2 0,-10.93 -1.93,0 -3.79,0 -5.71,0 0,-2.13 0,-4.05 0,-6.17 1.98,0 3.83,0 5.69,0 0,-5.86 0,-11.51 0,-17.35 -1.92,0 -3.75,0 -5.75,0 0,-1.99 0,-3.81 0,-5.71 -5.87,0 -11.56,0 -17.28,0 0,3.65 0,7.2 0,10.75 1.87,0 3.64,0 5.58,0 0,-1.79 0,-3.46 0,-5.15 2.24,0 4.31,0 6.43,0 0,4 0,7.85 0,11.91 -1.95,0 -3.81,0 -5.69,0 0,1.95 0,3.69 0,5.64 1.94,0 3.79,0 5.8,0 0,3.83 0,7.46 0,11.29 1.86,0 3.57,0 5.42,0 0,2.03 0,3.85 0,5.71 1.91,0.01 3.66,0.01 5.51,0.01 z m 5.93,-46 c -1.98,0 -3.75,0 -5.5,0 0,3.8 0,7.47 0,11.35 1.93,0 3.79,0 5.78,0 0,9.71 0,19.2 0,28.75 1.93,0 3.7,0 5.64,0 0,-5.84 0,-11.57 0,-17.51 2.01,0 3.86,0 5.72,0 0,-1.8 0,-3.39 0,-5.19 -1.94,0 -3.8,0 -5.8,0 0,-3.98 0,-7.76 0,-11.74 -2.01,0 -3.86,0 -5.84,0 0,-1.98 0,-3.78 0,-5.66 z m -11.85,81.3 c 0,-5.85 0,-11.5 0,-17.16 -5.79,0 -11.47,0 -17.18,0 0,5.78 0,11.44 0,17.16 5.77,0 11.43,0 17.18,0 z m 17.75,-10.85 c -1.98,0 -3.75,0 -5.7,0 0,3.72 0,7.34 0,11.16 -2.02,0 -3.87,0 -5.7,0 0,3.91 0,7.61 0,11.33 1.87,0 3.64,0 5.58,0 0,-1.94 0,-3.76 0,-5.78 2.01,0 3.86,0 5.86,0 0,-2 0,-3.78 0,-5.79 2,0 3.85,0 5.73,0 0,-1.82 0,-3.41 0,-5.21 -1.93,0 -3.79,0 -5.76,0 -0.01,-1.99 -0.01,-3.78 -0.01,-5.71 z M 126.82,76.75 c 2.19,0 4.19,0 6.2,0 0,-1.95 0,-3.69 0,-5.46 -3.81,0 -7.51,0 -11.27,0 0,3.79 0,7.48 0,11.23 1.7,0 3.32,0 5.07,0 0,-1.9 0,-3.69 0,-5.77 z m -81.89,75.81 c 0,-5.63 0,-11.13 0,-16.64 -1.72,0 -3.34,0 -4.96,0 0,5.6 0,11.08 0,16.64 1.68,0 3.27,0 4.96,0 z m 70.89,-64.17 c 1.91,0 3.68,0 5.47,0 0,-1.85 0,-3.58 0,-5.35 -1.87,0 -3.65,0 -5.47,0 0,1.81 0,3.52 0,5.35 z M 86.08,71.32 c -1.9,0 -3.67,0 -5.45,0 0,1.84 0,3.55 0,5.33 1.85,0 3.62,0 5.45,0 0,-1.81 0,-3.53 0,-5.33 z m 0.42,11.2 c 1.86,0 3.63,0 5.41,0 0,-1.85 0,-3.59 0,-5.36 -1.85,0 -3.59,0 -5.41,0 0,1.8 0,3.51 0,5.36 z m 0,23.5 c 1.84,0 3.61,0 5.42,0 0,-1.84 0,-3.58 0,-5.34 -1.86,0 -3.63,0 -5.42,0 0,1.83 0,3.54 0,5.34 z m -23.93,-5.87 c 0,-1.83 0,-3.57 0,-5.35 -1.86,0 -3.63,0 -5.4,0 0,1.85 0,3.59 0,5.35 1.85,0 3.59,0 5.4,0 z m 99.86,53.34 c 0,1.9 0,3.63 0,5.39 1.85,0 3.6,0 5.39,0 0,-1.83 0,-3.57 0,-5.39 -1.83,0 -3.58,0 -5.39,0 z M 80.19,77.17 c -1.9,0 -3.64,0 -5.41,0 0,1.84 0,3.58 0,5.34 1.86,0 3.63,0 5.41,0 0,-1.83 0,-3.54 0,-5.34 z m 58.73,0.02 c -1.86,0 -3.63,0 -5.41,0 0,1.86 0,3.59 0,5.35 1.85,0 3.59,0 5.41,0 0,-1.8 0,-3.51 0,-5.35 z m -64.14,23.46 c 0,1.87 0,3.61 0,5.34 1.87,0 3.64,0 5.41,0 0,-1.84 0,-3.55 0,-5.34 -1.81,0 -3.56,0 -5.41,0 z m 40.66,-23.47 c -1.87,0 -3.64,0 -5.4,0 0,1.85 0,3.59 0,5.35 1.85,0 3.6,0 5.4,0 0,-1.8 0,-3.52 0,-5.35 z m 12.19,29.34 c 0,1.86 0,3.6 0,5.34 1.72,0 3.34,0 4.96,0 0,-1.84 0,-3.55 0,-5.34 -1.66,0 -3.26,0 -4.96,0 z M 33.64,134.9 c 1.9,0 3.67,0 5.44,0 0,-1.69 0,-3.25 0,-4.86 -1.84,0 -3.61,0 -5.44,0 0,1.67 0,3.23 0,4.86 z m 105.71,64.64 c 1.74,0 3.33,0 4.98,0 0,-1.83 0,-3.57 0,-5.34 -1.7,0 -3.32,0 -4.98,0 0,1.82 0,3.53 0,5.34 z M 28.19,152.55 c 1.71,0 3.33,0 5.01,0 0,-1.68 0,-3.27 0,-4.89 -1.71,0 -3.33,0 -5.01,0 0,1.68 0,3.23 0,4.89 z m 152.28,-10.8 c 0,1.73 0,3.29 0,4.92 1.69,0 3.31,0 4.97,0 0,-1.69 0,-3.28 0,-4.92 -1.69,0 -3.29,0 -4.97,0 z M 91.97,89.37 c -1.89,0 -3.66,0 -5.45,0 0,1.55 0,2.99 0,4.42 1.87,0 3.65,0 5.45,0 0,-1.51 0,-2.9 0,-4.42 z"
   id="path24" />
	<path
   d="m 74.32,205.58 c 0,-1.85 0,-3.41 0,-5.19 -1.89,0 -3.74,0 -5.7,0 0,-2.25 0,-4.3 0,-6.6 1.87,0 3.71,0 5.66,0 0,-1.95 0,-3.65 0,-5.57 -1.92,0 -3.73,0 -5.65,0 0,-2.15 0,-4.07 0,-6.2 3.9,0 7.71,0 11.59,0 0,-5.83 0,-11.46 0,-17.2 -1.82,0 -3.59,0 -5.53,0 0,2.01 0,3.98 0,6.08 -2.09,0 -4.01,0 -6.06,0 0,-2.13 0,-4.21 0,-6.45 1.9,0 3.73,0 5.75,0 0,-5.93 0,-11.69 0,-17.57 2.13,0 4.05,0 6.15,0 0,1.92 0,3.74 0,5.67 1.92,0 3.67,0 5.59,0 0,-1.52 0,-3.07 0,-4.51 3.74,-1.84 7.6,-1.11 11.23,-1.32 0.2,-0.69 0.36,-1.28 0.54,-1.92 4.21,1.74 8.23,2.43 12.57,1.58 4.25,-0.84 7.82,-2.73 11.06,-5.98 0,8.22 0,16.14 0,24.27 -1.91,0 -3.77,0 -5.77,0 0,2.17 0,4.14 0,6.31 -3.95,0 -7.76,0 -11.73,0 0,2.02 0,3.84 0,5.87 -2.01,0 -3.86,0 -5.78,0 0,3.73 0,7.25 0,10.98 1.86,0 3.71,0 5.72,0 0,2.02 0,3.84 0,5.87 2,0 3.86,0 5.83,0 0,2.28 0,4.35 0,6.64 -1.91,0 -3.76,0 -5.68,0 0,1.62 0,3.03 0,4.57 3.74,0 7.47,0 11.36,0 0,-1.68 0,-3.35 0,-5.16 4.04,0 7.92,0 11.93,0 0,1.96 0,3.87 0,5.98 -1.91,0 -3.74,0 -5.75,0 0,2 0,3.82 0,5.79 -13.85,0 -27.5,0 -41.35,0 0,-1.91 0,-3.72 0,-5.63 -1.94,0 -3.68,0 -5.61,0 0,1.86 0,3.68 0,5.64 -2.09,0 -4.01,0 -6.07,0 0,-1.98 0,-3.87 0,-5.97 1.86,0.02 3.71,0.02 5.7,0.02 z m 6.35,-46.78 c 0,1.99 0,3.73 0,5.64 1.93,0 3.75,0 5.73,0 0,1.99 0,3.81 0,5.72 5.7,0 11.23,0 16.82,0 0,-3.79 0,-7.49 0,-11.39 -1.78,0 -3.48,0 -5.34,0 0,-1.88 0,-3.55 0,-5.25 -3.9,0 -7.63,0 -11.52,0 0,1.78 0,3.45 0,5.28 -1.98,0 -3.8,0 -5.69,0 z m 16.7,29.32 c -3.79,0 -7.45,0 -11.25,0 0,-2.02 0,-3.84 0,-5.7 -1.91,0 -3.65,0 -5.48,0 0,3.79 0,7.49 0,11.39 3.88,0 7.69,0 11.65,0 0,2.02 0,3.84 0,5.71 1.79,0 3.41,0 5.08,0 0,-3.78 0,-7.45 0,-11.4 z m -5.43,12.4 c -3.84,0 -7.57,0 -11.32,0 0,1.53 0,2.94 0,4.43 3.8,0 7.53,0 11.32,0 0,-1.51 0,-2.92 0,-4.43 z m 23.46,-41.64 c 0,-1.79 0,-3.56 0,-5.34 -1.85,0 -3.62,0 -5.41,0 0,1.83 0,3.54 0,5.34 1.78,0 3.49,0 5.41,0 z m -12.16,-6.31 c 0,-1.72 0,-3.29 0,-4.93 -1.69,0 -3.31,0 -4.97,0 0,1.69 0,3.28 0,4.93 1.68,0 3.28,0 4.97,0 z"
   id="path26" />
	<path
   d="m 62.84,170.38 c 0,13.77 0,27.43 0,41.21 -13.62,0 -27.14,0 -40.76,0 0,-13.77 0,-27.43 0,-41.21 13.63,0 27.14,0 40.76,0 z m -34.59,6.61 c 0,9.39 0,18.66 0,27.93 9.55,0 19,0 28.45,0 0,-9.36 0,-18.61 0,-27.93 -9.5,0 -18.93,0 -28.45,0 z"
   id="path28" />
	<path
   d="m 191.6,42.08 c 0,13.67 0,27.15 0,40.75 -13.77,0 -27.43,0 -41.21,0 0,-13.61 0,-27.13 0,-40.75 13.76,0 27.43,0 41.21,0 z m -6.14,5.72 c -9.57,0 -19,0 -28.47,0 0,9.66 0,19.23 0,28.84 9.54,0 18.99,0 28.47,0 0,-9.66 0,-19.2 0,-28.84 z"
   id="path30" />
	<path
   d="m 62.84,82.83 c -13.6,0 -27.09,0 -40.72,0 0,-13.55 0,-27.05 0,-40.72 13.59,0 27.1,0 40.72,0 0,13.56 0,27.05 0,40.72 z M 56.75,48.25 c -9.56,0 -19.01,0 -28.51,0 0,9.54 0,18.98 0,28.43 9.55,0 19.01,0 28.51,0 0,-9.48 0,-18.87 0,-28.43 z"
   id="path32" />
	<path
   class="st0"
   d="m 88.58,144.61 c 0.02,-0.4 -0.02,-0.7 0.05,-0.97 0.65,-2.35 1.39,-4.68 1.93,-7.05 0.17,-0.76 0.01,-1.71 -0.29,-2.46 -1.18,-2.97 -2.1,-6.03 -1.67,-9.21 0.31,-2.3 0.91,-4.7 2,-6.73 3.34,-6.21 8.55,-9.69 15.79,-9.73 7.81,-0.04 13.47,3.54 16.81,10.5 1.66,3.45 1.92,7.2 1.17,11.08 -0.91,4.76 -3.33,8.41 -7.19,11.14 -4.31,3.05 -9.15,3.76 -14.26,2.73 -1.42,-0.29 -2.76,-0.92 -4.16,-1.27 -0.66,-0.16 -1.43,-0.15 -2.09,0.02 -2.43,0.62 -4.84,1.33 -7.26,1.99 -0.19,0.07 -0.42,-0.01 -0.83,-0.04 z m 4.52,-4.23 c 0.9,-0.24 1.52,-0.37 2.12,-0.56 1.96,-0.63 3.78,-0.62 5.74,0.34 1.5,0.74 3.29,1.14 4.97,1.24 4.56,0.27 8.41,-1.44 11.58,-4.73 4.23,-4.39 5.21,-11.55 2.29,-16.92 -2.51,-4.62 -6.4,-7.41 -11.56,-7.92 -5.66,-0.56 -10.34,1.53 -13.69,6.31 -3.3,4.7 -3.72,9.69 -1.25,14.77 0.85,1.76 1.08,3.23 0.38,4.98 -0.29,0.71 -0.36,1.51 -0.58,2.49 z"
   id="path34" />
	<path
   d="m 22.07,118.03 c 0,-5.92 0,-11.73 0,-17.74 1.94,0 3.79,0 5.71,0 0,-2.07 0,-3.94 0,-6.02 -1.84,0 -3.7,0 -5.67,0 0,-1.98 0,-3.75 0,-5.65 1.98,0 3.9,0 5.99,0 0,1.75 0,3.42 0,5.19 1.79,0 3.41,0 5.2,0 0,-1.73 0,-3.4 0,-5.19 2.24,0 4.31,0 6.5,0 0,1.83 0,3.58 0,5.53 -2.03,0 -4.03,0 -6.2,0 0,2.18 0,4.15 0,6.33 -1.86,0 -3.56,0 -5.42,0 0,5.94 0,11.68 0,17.55 -2.09,0 -4.01,0 -6.11,0 z"
   id="path36" />
	<path
   d="m 191.55,211.54 c -3.95,0 -7.79,0 -11.78,0 0,-3.92 0,-7.76 0,-11.82 1.91,0 3.76,0 5.79,0 0,-2.04 0,-3.86 0,-5.82 2.1,0 4.01,0 6.01,0 0,2.13 0,4.18 0,6.43 -1.9,0 -3.75,0 -5.68,0 0,1.8 0,3.39 0,5.16 1.86,0 3.68,0 5.65,0 0.01,2.09 0.01,4 0.01,6.05 z"
   id="path38" />
	<path
   d="m 121.06,182.14 c 0,-3.96 0,-7.77 0,-11.74 3.88,0 7.75,0 11.77,0 0,3.88 0,7.75 0,11.74 -3.92,0 -7.76,0 -11.77,0 z"
   id="path40" />
	<path
   d="m 109.82,47.69 c -1.97,0 -3.77,0 -5.77,0 0,1.97 0,3.82 0,5.78 -2.25,0 -4.3,0 -6.49,0 0,-1.96 0,-3.88 0,-6.02 2.02,0 4.02,0 6.19,0 0,-1.88 0,-3.55 0,-5.35 2.1,0 4.02,0 6.06,0 0.01,1.84 0.01,3.61 0.01,5.59 z"
   id="path42" />
	<path
   d="m 115.69,176.28 c 0,1.99 0,3.88 0,5.87 -2,0 -3.89,0 -5.92,0 0,-1.96 0,-3.84 0,-5.87 1.95,0 3.9,0 5.92,0 z"
   id="path44" />
	<path
   class="st2"
   d="m 156.81,170.37 c 0,2.23 0,4.27 0,6.42 -2.17,0 -4.24,0 -6.42,0 0,-2.17 0,-4.24 0,-6.42 2.17,0 4.24,0 6.42,0 z"
   id="path46" />
	<path
   d="m 92.09,164.58 c 0,-1.89 0,-3.62 0,-5.49 2.01,0 3.92,0 5.97,0 0,1.83 0,3.6 0,5.49 -1.98,0 -3.89,0 -5.97,0 z"
   id="path48" />
	<path
   class="st0"
   d="m 51.43,181.79 c 0,6.15 0,12.18 0,18.35 -5.97,0 -11.88,0 -17.92,0 0,-6.11 0,-12.17 0,-18.35 5.97,0 11.86,0 17.92,0 z"
   id="path50" />
	<path
   class="st0"
   d="m 180.23,53.49 c 0,5.86 0,11.6 0,17.47 -6.01,0 -11.94,0 -18,0 0,-5.81 0,-11.57 0,-17.47 5.97,0 11.91,0 18,0 z"
   id="path52" />
	<path
   class="st0"
   d="m 51.19,70.77 c -5.89,0 -11.66,0 -17.48,0 0,-5.61 0,-11.26 0,-17.03 5.86,0 11.61,0 17.48,0 0,5.66 0,11.24 0,17.03 z"
   id="path54" />
	<path
   class="st0"
   d="m 102.28,124.93 c 0.98,2.14 2.44,3.63 4.3,4.77 0.32,0.2 0.69,0.31 1,0.52 1.08,0.74 1.79,0.46 2.48,-0.63 0.93,-1.47 1.09,-1.43 2.61,-0.63 0.93,0.49 1.9,0.9 2.82,1.34 1.03,2.25 -0.88,4.77 -3.66,4.91 -2.4,0.12 -4.55,-0.79 -6.46,-2.02 -3.34,-2.14 -5.95,-5.01 -7.55,-8.71 -0.75,-1.73 -0.27,-4.45 1.03,-5.8 1.19,-1.24 3.17,-0.84 3.77,0.76 0.17,0.46 0.26,0.96 0.51,1.37 1.02,1.58 0.66,2.91 -0.85,4.12 z"
   id="path56" />
</g></g>
</svg>
